M48
; DRILL file {KiCad (5.1.12)-1} date 04/14/22 09:57:58
; FORMAT={-:-/ absolute / metric / decimal}
; #@! TF.CreationDate,2022-04-14T09:57:58+09:00
; #@! TF.GenerationSoftware,Kicad,Pcbnew,(5.1.12)-1
; #@! TF.FileFunction,Plated,1,2,PTH
FMAT,2
METRIC
T1C0.400
T2C0.700
T3C1.040
T4C1.470
%
G90
G05
T1
X57.531Y-103.632
X61.214Y-83.82
X65.659Y-83.82
X67.564Y-96.393
X68.199Y-91.821
X71.755Y-85.533
X83.82Y-101.727
X86.233Y-90.043
T3
X94.615Y-88.265
X94.615Y-107.315
X97.155Y-88.265
X97.155Y-107.315
X113.665Y-88.265
X113.665Y-107.315
X116.205Y-88.265
X116.205Y-107.315
T4
X92.075Y-80.645
X92.075Y-99.695
X93.385Y-79.185
X93.385Y-98.235
X98.385Y-78.685
X98.385Y-97.735
X98.425Y-78.105
X98.425Y-97.155
X111.125Y-80.645
X111.125Y-99.695
X112.435Y-79.185
X112.435Y-98.235
X117.435Y-78.685
X117.435Y-97.735
X117.475Y-78.105
X117.475Y-97.155
T2
G00X51.341Y-74.806
M15
G01X51.341Y-76.006
M16
G05
G00X51.341Y-79.306
M15
G01X51.341Y-80.506
M16
G05
G00X58.641Y-74.806
M15
G01X58.641Y-76.006
M16
G05
G00X58.641Y-79.306
M15
G01X58.641Y-80.506
M16
G05
T0
M30
