%TF.GenerationSoftware,KiCad,Pcbnew,(5.1.12)-1*%
%TF.CreationDate,2022-04-14T09:57:20+09:00*%
%TF.ProjectId,ai03-pcb-guide,61693033-2d70-4636-922d-67756964652e,rev?*%
%TF.SameCoordinates,Original*%
%TF.FileFunction,Copper,L1,Top*%
%TF.FilePolarity,Positive*%
%FSLAX46Y46*%
G04 Gerber Fmt 4.6, Leading zero omitted, Abs format (unit mm)*
G04 Created by KiCad (PCBNEW (5.1.12)-1) date 2022-04-14 09:57:20*
%MOMM*%
%LPD*%
G01*
G04 APERTURE LIST*
%TA.AperFunction,ComponentPad*%
%ADD10O,1.700000X2.700000*%
%TD*%
%TA.AperFunction,ComponentPad*%
%ADD11R,1.905000X1.905000*%
%TD*%
%TA.AperFunction,ComponentPad*%
%ADD12C,1.905000*%
%TD*%
%TA.AperFunction,ComponentPad*%
%ADD13C,2.250000*%
%TD*%
%TA.AperFunction,ViaPad*%
%ADD14C,0.800000*%
%TD*%
%TA.AperFunction,Conductor*%
%ADD15C,0.381000*%
%TD*%
%TA.AperFunction,Conductor*%
%ADD16C,0.254000*%
%TD*%
G04 APERTURE END LIST*
D10*
%TO.P,USB1,6*%
%TO.N,Net-(USB1-Pad6)*%
X51341000Y-75406250D03*
X58641000Y-75406250D03*
X58641000Y-79906250D03*
X51341000Y-79906250D03*
%TD*%
D11*
%TO.P,MX4,4*%
%TO.N,N/C*%
X116205000Y-107315000D03*
D12*
%TO.P,MX4,3*%
X113665000Y-107315000D03*
D13*
%TO.P,MX4,1*%
%TO.N,COL1*%
X112435000Y-98235000D03*
%TA.AperFunction,ComponentPad*%
G36*
G01*
X110373688Y-100532350D02*
X110373683Y-100532345D01*
G75*
G02*
X110287655Y-98943683I751317J837345D01*
G01*
X111597657Y-97483683D01*
G75*
G02*
X113186319Y-97397655I837345J-751317D01*
G01*
X113186319Y-97397655D01*
G75*
G02*
X113272347Y-98986317I-751317J-837345D01*
G01*
X111962345Y-100446317D01*
G75*
G02*
X110373683Y-100532345I-837345J751317D01*
G01*
G37*
%TD.AperFunction*%
%TO.P,MX4,2*%
%TO.N,Net-(D4-Pad2)*%
X117475000Y-97155000D03*
%TA.AperFunction,ComponentPad*%
G36*
G01*
X117358483Y-98857395D02*
X117357597Y-98857334D01*
G75*
G02*
X116312666Y-97657597I77403J1122334D01*
G01*
X116352666Y-97077597D01*
G75*
G02*
X117552403Y-96032666I1122334J-77403D01*
G01*
X117552403Y-96032666D01*
G75*
G02*
X118597334Y-97232403I-77403J-1122334D01*
G01*
X118557334Y-97812403D01*
G75*
G02*
X117357597Y-98857334I-1122334J77403D01*
G01*
G37*
%TD.AperFunction*%
%TD*%
D11*
%TO.P,MX3,4*%
%TO.N,N/C*%
X97155000Y-107315000D03*
D12*
%TO.P,MX3,3*%
X94615000Y-107315000D03*
D13*
%TO.P,MX3,1*%
%TO.N,COL0*%
X93385000Y-98235000D03*
%TA.AperFunction,ComponentPad*%
G36*
G01*
X91323688Y-100532350D02*
X91323683Y-100532345D01*
G75*
G02*
X91237655Y-98943683I751317J837345D01*
G01*
X92547657Y-97483683D01*
G75*
G02*
X94136319Y-97397655I837345J-751317D01*
G01*
X94136319Y-97397655D01*
G75*
G02*
X94222347Y-98986317I-751317J-837345D01*
G01*
X92912345Y-100446317D01*
G75*
G02*
X91323683Y-100532345I-837345J751317D01*
G01*
G37*
%TD.AperFunction*%
%TO.P,MX3,2*%
%TO.N,Net-(D3-Pad2)*%
X98425000Y-97155000D03*
%TA.AperFunction,ComponentPad*%
G36*
G01*
X98308483Y-98857395D02*
X98307597Y-98857334D01*
G75*
G02*
X97262666Y-97657597I77403J1122334D01*
G01*
X97302666Y-97077597D01*
G75*
G02*
X98502403Y-96032666I1122334J-77403D01*
G01*
X98502403Y-96032666D01*
G75*
G02*
X99547334Y-97232403I-77403J-1122334D01*
G01*
X99507334Y-97812403D01*
G75*
G02*
X98307597Y-98857334I-1122334J77403D01*
G01*
G37*
%TD.AperFunction*%
%TD*%
D11*
%TO.P,MX2,4*%
%TO.N,N/C*%
X116205000Y-88265000D03*
D12*
%TO.P,MX2,3*%
X113665000Y-88265000D03*
D13*
%TO.P,MX2,1*%
%TO.N,COL1*%
X112435000Y-79185000D03*
%TA.AperFunction,ComponentPad*%
G36*
G01*
X110373688Y-81482350D02*
X110373683Y-81482345D01*
G75*
G02*
X110287655Y-79893683I751317J837345D01*
G01*
X111597657Y-78433683D01*
G75*
G02*
X113186319Y-78347655I837345J-751317D01*
G01*
X113186319Y-78347655D01*
G75*
G02*
X113272347Y-79936317I-751317J-837345D01*
G01*
X111962345Y-81396317D01*
G75*
G02*
X110373683Y-81482345I-837345J751317D01*
G01*
G37*
%TD.AperFunction*%
%TO.P,MX2,2*%
%TO.N,Net-(D2-Pad2)*%
X117475000Y-78105000D03*
%TA.AperFunction,ComponentPad*%
G36*
G01*
X117358483Y-79807395D02*
X117357597Y-79807334D01*
G75*
G02*
X116312666Y-78607597I77403J1122334D01*
G01*
X116352666Y-78027597D01*
G75*
G02*
X117552403Y-76982666I1122334J-77403D01*
G01*
X117552403Y-76982666D01*
G75*
G02*
X118597334Y-78182403I-77403J-1122334D01*
G01*
X118557334Y-78762403D01*
G75*
G02*
X117357597Y-79807334I-1122334J77403D01*
G01*
G37*
%TD.AperFunction*%
%TD*%
D11*
%TO.P,MX1,4*%
%TO.N,N/C*%
X97155000Y-88265000D03*
D12*
%TO.P,MX1,3*%
X94615000Y-88265000D03*
D13*
%TO.P,MX1,1*%
%TO.N,COL0*%
X93385000Y-79185000D03*
%TA.AperFunction,ComponentPad*%
G36*
G01*
X91323688Y-81482350D02*
X91323683Y-81482345D01*
G75*
G02*
X91237655Y-79893683I751317J837345D01*
G01*
X92547657Y-78433683D01*
G75*
G02*
X94136319Y-78347655I837345J-751317D01*
G01*
X94136319Y-78347655D01*
G75*
G02*
X94222347Y-79936317I-751317J-837345D01*
G01*
X92912345Y-81396317D01*
G75*
G02*
X91323683Y-81482345I-837345J751317D01*
G01*
G37*
%TD.AperFunction*%
%TO.P,MX1,2*%
%TO.N,Net-(D1-Pad2)*%
X98425000Y-78105000D03*
%TA.AperFunction,ComponentPad*%
G36*
G01*
X98308483Y-79807395D02*
X98307597Y-79807334D01*
G75*
G02*
X97262666Y-78607597I77403J1122334D01*
G01*
X97302666Y-78027597D01*
G75*
G02*
X98502403Y-76982666I1122334J-77403D01*
G01*
X98502403Y-76982666D01*
G75*
G02*
X99547334Y-78182403I-77403J-1122334D01*
G01*
X99507334Y-78762403D01*
G75*
G02*
X98307597Y-79807334I-1122334J77403D01*
G01*
G37*
%TD.AperFunction*%
%TD*%
D14*
%TO.N,+5V*%
X86233000Y-90043000D03*
X83820000Y-101727000D03*
X67564000Y-96393000D03*
X68199000Y-91821000D03*
%TO.N,Net-(R1-Pad2)*%
X61214000Y-83820000D03*
X57531000Y-103632000D03*
X65659000Y-83820000D03*
X71755000Y-85532998D03*
%TD*%
D15*
%TO.N,+5V*%
X86233000Y-90043000D02*
X86233000Y-99314000D01*
X86233000Y-99314000D02*
X83820000Y-101727000D01*
X83820000Y-101727000D02*
X83820000Y-101727000D01*
X83820000Y-101727000D02*
X73533000Y-101727000D01*
X67564000Y-96393000D02*
X72898000Y-101727000D01*
X72898000Y-101727000D02*
X73533000Y-101727000D01*
X67564000Y-96393000D02*
X67564000Y-92456000D01*
X67564000Y-92456000D02*
X68199000Y-91821000D01*
D16*
%TO.N,COL0*%
X92075000Y-80645000D02*
X92075000Y-99695000D01*
%TO.N,COL1*%
X111125000Y-80645000D02*
X111125000Y-99695000D01*
%TO.N,Net-(R1-Pad2)*%
X61214000Y-83820000D02*
X61214000Y-102997000D01*
X61214000Y-102997000D02*
X60579000Y-103632000D01*
X60579000Y-103632000D02*
X57531000Y-103632000D01*
X65659000Y-83820000D02*
X70042002Y-83820000D01*
X70042002Y-83820000D02*
X71755000Y-85532998D01*
%TD*%
M02*
