%TF.GenerationSoftware,KiCad,Pcbnew,(5.1.12)-1*%
%TF.CreationDate,2022-04-14T09:57:20+09:00*%
%TF.ProjectId,ai03-pcb-guide,61693033-2d70-4636-922d-67756964652e,rev?*%
%TF.SameCoordinates,Original*%
%TF.FileFunction,Copper,L2,Bot*%
%TF.FilePolarity,Positive*%
%FSLAX46Y46*%
G04 Gerber Fmt 4.6, Leading zero omitted, Abs format (unit mm)*
G04 Created by KiCad (PCBNEW (5.1.12)-1) date 2022-04-14 09:57:20*
%MOMM*%
%LPD*%
G01*
G04 APERTURE LIST*
%TA.AperFunction,SMDPad,CuDef*%
%ADD10R,1.400000X1.200000*%
%TD*%
%TA.AperFunction,ComponentPad*%
%ADD11O,1.700000X2.700000*%
%TD*%
%TA.AperFunction,SMDPad,CuDef*%
%ADD12R,0.500000X2.250000*%
%TD*%
%TA.AperFunction,SMDPad,CuDef*%
%ADD13R,0.550000X1.500000*%
%TD*%
%TA.AperFunction,SMDPad,CuDef*%
%ADD14R,1.500000X0.550000*%
%TD*%
%TA.AperFunction,SMDPad,CuDef*%
%ADD15R,1.800000X1.100000*%
%TD*%
%TA.AperFunction,ComponentPad*%
%ADD16R,1.905000X1.905000*%
%TD*%
%TA.AperFunction,ComponentPad*%
%ADD17C,1.905000*%
%TD*%
%TA.AperFunction,ComponentPad*%
%ADD18C,2.250000*%
%TD*%
%TA.AperFunction,SMDPad,CuDef*%
%ADD19R,1.200000X0.900000*%
%TD*%
%TA.AperFunction,ViaPad*%
%ADD20C,0.800000*%
%TD*%
%TA.AperFunction,Conductor*%
%ADD21C,0.381000*%
%TD*%
%TA.AperFunction,Conductor*%
%ADD22C,0.254000*%
%TD*%
%TA.AperFunction,Conductor*%
%ADD23C,0.100000*%
%TD*%
G04 APERTURE END LIST*
D10*
%TO.P,Y1,4*%
%TO.N,GND*%
X75903000Y-79033000D03*
%TO.P,Y1,3*%
%TO.N,Net-(C2-Pad1)*%
X73703000Y-79033000D03*
%TO.P,Y1,2*%
%TO.N,GND*%
X73703000Y-80733000D03*
%TO.P,Y1,1*%
%TO.N,Net-(C1-Pad1)*%
X75903000Y-80733000D03*
%TD*%
D11*
%TO.P,USB1,6*%
%TO.N,Net-(USB1-Pad6)*%
X51341000Y-75406250D03*
X58641000Y-75406250D03*
X58641000Y-79906250D03*
X51341000Y-79906250D03*
D12*
%TO.P,USB1,5*%
%TO.N,VCC*%
X53391000Y-79906250D03*
%TO.P,USB1,4*%
%TO.N,D-*%
X54191000Y-79906250D03*
%TO.P,USB1,3*%
%TO.N,D+*%
X54991000Y-79906250D03*
%TO.P,USB1,2*%
%TO.N,Net-(USB1-Pad2)*%
X55791000Y-79906250D03*
%TO.P,USB1,1*%
%TO.N,GND*%
X56591000Y-79906250D03*
%TD*%
D13*
%TO.P,U1,44*%
%TO.N,+5V*%
X71565000Y-98283000D03*
%TO.P,U1,43*%
%TO.N,GND*%
X72365000Y-98283000D03*
%TO.P,U1,42*%
%TO.N,Net-(U1-Pad42)*%
X73165000Y-98283000D03*
%TO.P,U1,41*%
%TO.N,Net-(U1-Pad41)*%
X73965000Y-98283000D03*
%TO.P,U1,40*%
%TO.N,Net-(U1-Pad40)*%
X74765000Y-98283000D03*
%TO.P,U1,39*%
%TO.N,Net-(U1-Pad39)*%
X75565000Y-98283000D03*
%TO.P,U1,38*%
%TO.N,Net-(U1-Pad38)*%
X76365000Y-98283000D03*
%TO.P,U1,37*%
%TO.N,Net-(U1-Pad37)*%
X77165000Y-98283000D03*
%TO.P,U1,36*%
%TO.N,Net-(U1-Pad36)*%
X77965000Y-98283000D03*
%TO.P,U1,35*%
%TO.N,GND*%
X78765000Y-98283000D03*
%TO.P,U1,34*%
%TO.N,+5V*%
X79565000Y-98283000D03*
D14*
%TO.P,U1,33*%
%TO.N,Net-(R4-Pad2)*%
X81265000Y-96583000D03*
%TO.P,U1,32*%
%TO.N,Net-(U1-Pad32)*%
X81265000Y-95783000D03*
%TO.P,U1,31*%
%TO.N,Net-(U1-Pad31)*%
X81265000Y-94983000D03*
%TO.P,U1,30*%
%TO.N,ROW1*%
X81265000Y-94183000D03*
%TO.P,U1,29*%
%TO.N,COL0*%
X81265000Y-93383000D03*
%TO.P,U1,28*%
%TO.N,COL1*%
X81265000Y-92583000D03*
%TO.P,U1,27*%
%TO.N,ROW0*%
X81265000Y-91783000D03*
%TO.P,U1,26*%
%TO.N,Net-(U1-Pad26)*%
X81265000Y-90983000D03*
%TO.P,U1,25*%
%TO.N,Net-(U1-Pad25)*%
X81265000Y-90183000D03*
%TO.P,U1,24*%
%TO.N,+5V*%
X81265000Y-89383000D03*
%TO.P,U1,23*%
%TO.N,GND*%
X81265000Y-88583000D03*
D13*
%TO.P,U1,22*%
%TO.N,Net-(U1-Pad22)*%
X79565000Y-86883000D03*
%TO.P,U1,21*%
%TO.N,Net-(U1-Pad21)*%
X78765000Y-86883000D03*
%TO.P,U1,20*%
%TO.N,Net-(U1-Pad20)*%
X77965000Y-86883000D03*
%TO.P,U1,19*%
%TO.N,Net-(U1-Pad19)*%
X77165000Y-86883000D03*
%TO.P,U1,18*%
%TO.N,Net-(U1-Pad18)*%
X76365000Y-86883000D03*
%TO.P,U1,17*%
%TO.N,Net-(C1-Pad1)*%
X75565000Y-86883000D03*
%TO.P,U1,16*%
%TO.N,Net-(C2-Pad1)*%
X74765000Y-86883000D03*
%TO.P,U1,15*%
%TO.N,GND*%
X73965000Y-86883000D03*
%TO.P,U1,14*%
%TO.N,+5V*%
X73165000Y-86883000D03*
%TO.P,U1,13*%
%TO.N,Net-(R1-Pad2)*%
X72365000Y-86883000D03*
%TO.P,U1,12*%
%TO.N,Net-(U1-Pad12)*%
X71565000Y-86883000D03*
D14*
%TO.P,U1,11*%
%TO.N,Net-(U1-Pad11)*%
X69865000Y-88583000D03*
%TO.P,U1,10*%
%TO.N,Net-(U1-Pad10)*%
X69865000Y-89383000D03*
%TO.P,U1,9*%
%TO.N,Net-(U1-Pad9)*%
X69865000Y-90183000D03*
%TO.P,U1,8*%
%TO.N,Net-(U1-Pad8)*%
X69865000Y-90983000D03*
%TO.P,U1,7*%
%TO.N,+5V*%
X69865000Y-91783000D03*
%TO.P,U1,6*%
%TO.N,Net-(C3-Pad1)*%
X69865000Y-92583000D03*
%TO.P,U1,5*%
%TO.N,GND*%
X69865000Y-93383000D03*
%TO.P,U1,4*%
%TO.N,Net-(R2-Pad1)*%
X69865000Y-94183000D03*
%TO.P,U1,3*%
%TO.N,Net-(R3-Pad1)*%
X69865000Y-94983000D03*
%TO.P,U1,2*%
%TO.N,+5V*%
X69865000Y-95783000D03*
%TO.P,U1,1*%
%TO.N,Net-(U1-Pad1)*%
X69865000Y-96583000D03*
%TD*%
D15*
%TO.P,SW1,4*%
%TO.N,N/C*%
X55709750Y-107418750D03*
%TO.P,SW1,3*%
X49509750Y-103718750D03*
%TO.P,SW1,2*%
%TO.N,Net-(R1-Pad2)*%
X55709750Y-103718750D03*
%TO.P,SW1,1*%
%TO.N,GND*%
X49509750Y-107418750D03*
%TD*%
%TO.P,R4,2*%
%TO.N,Net-(R4-Pad2)*%
%TA.AperFunction,SMDPad,CuDef*%
G36*
G01*
X85159001Y-97390000D02*
X84258999Y-97390000D01*
G75*
G02*
X84009000Y-97140001I0J249999D01*
G01*
X84009000Y-96614999D01*
G75*
G02*
X84258999Y-96365000I249999J0D01*
G01*
X85159001Y-96365000D01*
G75*
G02*
X85409000Y-96614999I0J-249999D01*
G01*
X85409000Y-97140001D01*
G75*
G02*
X85159001Y-97390000I-249999J0D01*
G01*
G37*
%TD.AperFunction*%
%TO.P,R4,1*%
%TO.N,GND*%
%TA.AperFunction,SMDPad,CuDef*%
G36*
G01*
X85159001Y-99215000D02*
X84258999Y-99215000D01*
G75*
G02*
X84009000Y-98965001I0J249999D01*
G01*
X84009000Y-98439999D01*
G75*
G02*
X84258999Y-98190000I249999J0D01*
G01*
X85159001Y-98190000D01*
G75*
G02*
X85409000Y-98439999I0J-249999D01*
G01*
X85409000Y-98965001D01*
G75*
G02*
X85159001Y-99215000I-249999J0D01*
G01*
G37*
%TD.AperFunction*%
%TD*%
%TO.P,R3,2*%
%TO.N,D-*%
%TA.AperFunction,SMDPad,CuDef*%
G36*
G01*
X53059751Y-84531250D02*
X52159749Y-84531250D01*
G75*
G02*
X51909750Y-84281251I0J249999D01*
G01*
X51909750Y-83756249D01*
G75*
G02*
X52159749Y-83506250I249999J0D01*
G01*
X53059751Y-83506250D01*
G75*
G02*
X53309750Y-83756249I0J-249999D01*
G01*
X53309750Y-84281251D01*
G75*
G02*
X53059751Y-84531250I-249999J0D01*
G01*
G37*
%TD.AperFunction*%
%TO.P,R3,1*%
%TO.N,Net-(R3-Pad1)*%
%TA.AperFunction,SMDPad,CuDef*%
G36*
G01*
X53059751Y-86356250D02*
X52159749Y-86356250D01*
G75*
G02*
X51909750Y-86106251I0J249999D01*
G01*
X51909750Y-85581249D01*
G75*
G02*
X52159749Y-85331250I249999J0D01*
G01*
X53059751Y-85331250D01*
G75*
G02*
X53309750Y-85581249I0J-249999D01*
G01*
X53309750Y-86106251D01*
G75*
G02*
X53059751Y-86356250I-249999J0D01*
G01*
G37*
%TD.AperFunction*%
%TD*%
%TO.P,R2,2*%
%TO.N,D+*%
%TA.AperFunction,SMDPad,CuDef*%
G36*
G01*
X57028501Y-84531250D02*
X56128499Y-84531250D01*
G75*
G02*
X55878500Y-84281251I0J249999D01*
G01*
X55878500Y-83756249D01*
G75*
G02*
X56128499Y-83506250I249999J0D01*
G01*
X57028501Y-83506250D01*
G75*
G02*
X57278500Y-83756249I0J-249999D01*
G01*
X57278500Y-84281251D01*
G75*
G02*
X57028501Y-84531250I-249999J0D01*
G01*
G37*
%TD.AperFunction*%
%TO.P,R2,1*%
%TO.N,Net-(R2-Pad1)*%
%TA.AperFunction,SMDPad,CuDef*%
G36*
G01*
X57028501Y-86356250D02*
X56128499Y-86356250D01*
G75*
G02*
X55878500Y-86106251I0J249999D01*
G01*
X55878500Y-85581249D01*
G75*
G02*
X56128499Y-85331250I249999J0D01*
G01*
X57028501Y-85331250D01*
G75*
G02*
X57278500Y-85581249I0J-249999D01*
G01*
X57278500Y-86106251D01*
G75*
G02*
X57028501Y-86356250I-249999J0D01*
G01*
G37*
%TD.AperFunction*%
%TD*%
%TO.P,R1,2*%
%TO.N,Net-(R1-Pad2)*%
%TA.AperFunction,SMDPad,CuDef*%
G36*
G01*
X63696001Y-83801000D02*
X62795999Y-83801000D01*
G75*
G02*
X62546000Y-83551001I0J249999D01*
G01*
X62546000Y-83025999D01*
G75*
G02*
X62795999Y-82776000I249999J0D01*
G01*
X63696001Y-82776000D01*
G75*
G02*
X63946000Y-83025999I0J-249999D01*
G01*
X63946000Y-83551001D01*
G75*
G02*
X63696001Y-83801000I-249999J0D01*
G01*
G37*
%TD.AperFunction*%
%TO.P,R1,1*%
%TO.N,+5V*%
%TA.AperFunction,SMDPad,CuDef*%
G36*
G01*
X63696001Y-85626000D02*
X62795999Y-85626000D01*
G75*
G02*
X62546000Y-85376001I0J249999D01*
G01*
X62546000Y-84850999D01*
G75*
G02*
X62795999Y-84601000I249999J0D01*
G01*
X63696001Y-84601000D01*
G75*
G02*
X63946000Y-84850999I0J-249999D01*
G01*
X63946000Y-85376001D01*
G75*
G02*
X63696001Y-85626000I-249999J0D01*
G01*
G37*
%TD.AperFunction*%
%TD*%
D16*
%TO.P,MX4,4*%
%TO.N,N/C*%
X116205000Y-107315000D03*
D17*
%TO.P,MX4,3*%
X113665000Y-107315000D03*
D18*
%TO.P,MX4,1*%
%TO.N,COL1*%
X112435000Y-98235000D03*
%TA.AperFunction,ComponentPad*%
G36*
G01*
X110373688Y-100532350D02*
X110373683Y-100532345D01*
G75*
G02*
X110287655Y-98943683I751317J837345D01*
G01*
X111597657Y-97483683D01*
G75*
G02*
X113186319Y-97397655I837345J-751317D01*
G01*
X113186319Y-97397655D01*
G75*
G02*
X113272347Y-98986317I-751317J-837345D01*
G01*
X111962345Y-100446317D01*
G75*
G02*
X110373683Y-100532345I-837345J751317D01*
G01*
G37*
%TD.AperFunction*%
%TO.P,MX4,2*%
%TO.N,Net-(D4-Pad2)*%
X117475000Y-97155000D03*
%TA.AperFunction,ComponentPad*%
G36*
G01*
X117358483Y-98857395D02*
X117357597Y-98857334D01*
G75*
G02*
X116312666Y-97657597I77403J1122334D01*
G01*
X116352666Y-97077597D01*
G75*
G02*
X117552403Y-96032666I1122334J-77403D01*
G01*
X117552403Y-96032666D01*
G75*
G02*
X118597334Y-97232403I-77403J-1122334D01*
G01*
X118557334Y-97812403D01*
G75*
G02*
X117357597Y-98857334I-1122334J77403D01*
G01*
G37*
%TD.AperFunction*%
%TD*%
D16*
%TO.P,MX3,4*%
%TO.N,N/C*%
X97155000Y-107315000D03*
D17*
%TO.P,MX3,3*%
X94615000Y-107315000D03*
D18*
%TO.P,MX3,1*%
%TO.N,COL0*%
X93385000Y-98235000D03*
%TA.AperFunction,ComponentPad*%
G36*
G01*
X91323688Y-100532350D02*
X91323683Y-100532345D01*
G75*
G02*
X91237655Y-98943683I751317J837345D01*
G01*
X92547657Y-97483683D01*
G75*
G02*
X94136319Y-97397655I837345J-751317D01*
G01*
X94136319Y-97397655D01*
G75*
G02*
X94222347Y-98986317I-751317J-837345D01*
G01*
X92912345Y-100446317D01*
G75*
G02*
X91323683Y-100532345I-837345J751317D01*
G01*
G37*
%TD.AperFunction*%
%TO.P,MX3,2*%
%TO.N,Net-(D3-Pad2)*%
X98425000Y-97155000D03*
%TA.AperFunction,ComponentPad*%
G36*
G01*
X98308483Y-98857395D02*
X98307597Y-98857334D01*
G75*
G02*
X97262666Y-97657597I77403J1122334D01*
G01*
X97302666Y-97077597D01*
G75*
G02*
X98502403Y-96032666I1122334J-77403D01*
G01*
X98502403Y-96032666D01*
G75*
G02*
X99547334Y-97232403I-77403J-1122334D01*
G01*
X99507334Y-97812403D01*
G75*
G02*
X98307597Y-98857334I-1122334J77403D01*
G01*
G37*
%TD.AperFunction*%
%TD*%
D16*
%TO.P,MX2,4*%
%TO.N,N/C*%
X116205000Y-88265000D03*
D17*
%TO.P,MX2,3*%
X113665000Y-88265000D03*
D18*
%TO.P,MX2,1*%
%TO.N,COL1*%
X112435000Y-79185000D03*
%TA.AperFunction,ComponentPad*%
G36*
G01*
X110373688Y-81482350D02*
X110373683Y-81482345D01*
G75*
G02*
X110287655Y-79893683I751317J837345D01*
G01*
X111597657Y-78433683D01*
G75*
G02*
X113186319Y-78347655I837345J-751317D01*
G01*
X113186319Y-78347655D01*
G75*
G02*
X113272347Y-79936317I-751317J-837345D01*
G01*
X111962345Y-81396317D01*
G75*
G02*
X110373683Y-81482345I-837345J751317D01*
G01*
G37*
%TD.AperFunction*%
%TO.P,MX2,2*%
%TO.N,Net-(D2-Pad2)*%
X117475000Y-78105000D03*
%TA.AperFunction,ComponentPad*%
G36*
G01*
X117358483Y-79807395D02*
X117357597Y-79807334D01*
G75*
G02*
X116312666Y-78607597I77403J1122334D01*
G01*
X116352666Y-78027597D01*
G75*
G02*
X117552403Y-76982666I1122334J-77403D01*
G01*
X117552403Y-76982666D01*
G75*
G02*
X118597334Y-78182403I-77403J-1122334D01*
G01*
X118557334Y-78762403D01*
G75*
G02*
X117357597Y-79807334I-1122334J77403D01*
G01*
G37*
%TD.AperFunction*%
%TD*%
D16*
%TO.P,MX1,4*%
%TO.N,N/C*%
X97155000Y-88265000D03*
D17*
%TO.P,MX1,3*%
X94615000Y-88265000D03*
D18*
%TO.P,MX1,1*%
%TO.N,COL0*%
X93385000Y-79185000D03*
%TA.AperFunction,ComponentPad*%
G36*
G01*
X91323688Y-81482350D02*
X91323683Y-81482345D01*
G75*
G02*
X91237655Y-79893683I751317J837345D01*
G01*
X92547657Y-78433683D01*
G75*
G02*
X94136319Y-78347655I837345J-751317D01*
G01*
X94136319Y-78347655D01*
G75*
G02*
X94222347Y-79936317I-751317J-837345D01*
G01*
X92912345Y-81396317D01*
G75*
G02*
X91323683Y-81482345I-837345J751317D01*
G01*
G37*
%TD.AperFunction*%
%TO.P,MX1,2*%
%TO.N,Net-(D1-Pad2)*%
X98425000Y-78105000D03*
%TA.AperFunction,ComponentPad*%
G36*
G01*
X98308483Y-79807395D02*
X98307597Y-79807334D01*
G75*
G02*
X97262666Y-78607597I77403J1122334D01*
G01*
X97302666Y-78027597D01*
G75*
G02*
X98502403Y-76982666I1122334J-77403D01*
G01*
X98502403Y-76982666D01*
G75*
G02*
X99547334Y-78182403I-77403J-1122334D01*
G01*
X99507334Y-78762403D01*
G75*
G02*
X98307597Y-79807334I-1122334J77403D01*
G01*
G37*
%TD.AperFunction*%
%TD*%
%TO.P,F1,2*%
%TO.N,VCC*%
%TA.AperFunction,SMDPad,CuDef*%
G36*
G01*
X50059750Y-91300000D02*
X48809750Y-91300000D01*
G75*
G02*
X48559750Y-91050000I0J250000D01*
G01*
X48559750Y-90300000D01*
G75*
G02*
X48809750Y-90050000I250000J0D01*
G01*
X50059750Y-90050000D01*
G75*
G02*
X50309750Y-90300000I0J-250000D01*
G01*
X50309750Y-91050000D01*
G75*
G02*
X50059750Y-91300000I-250000J0D01*
G01*
G37*
%TD.AperFunction*%
%TO.P,F1,1*%
%TO.N,+5V*%
%TA.AperFunction,SMDPad,CuDef*%
G36*
G01*
X50059750Y-94100000D02*
X48809750Y-94100000D01*
G75*
G02*
X48559750Y-93850000I0J250000D01*
G01*
X48559750Y-93100000D01*
G75*
G02*
X48809750Y-92850000I250000J0D01*
G01*
X50059750Y-92850000D01*
G75*
G02*
X50309750Y-93100000I0J-250000D01*
G01*
X50309750Y-93850000D01*
G75*
G02*
X50059750Y-94100000I-250000J0D01*
G01*
G37*
%TD.AperFunction*%
%TD*%
D19*
%TO.P,D4,2*%
%TO.N,Net-(D4-Pad2)*%
X123063000Y-100585000D03*
%TO.P,D4,1*%
%TO.N,ROW1*%
X123063000Y-103885000D03*
%TD*%
%TO.P,D3,2*%
%TO.N,Net-(D3-Pad2)*%
X104013000Y-100585000D03*
%TO.P,D3,1*%
%TO.N,ROW1*%
X104013000Y-103885000D03*
%TD*%
%TO.P,D2,2*%
%TO.N,Net-(D2-Pad2)*%
X123063000Y-81535000D03*
%TO.P,D2,1*%
%TO.N,ROW0*%
X123063000Y-84835000D03*
%TD*%
%TO.P,D1,2*%
%TO.N,Net-(D1-Pad2)*%
X104013000Y-81535000D03*
%TO.P,D1,1*%
%TO.N,ROW0*%
X104013000Y-84835000D03*
%TD*%
%TO.P,C7,2*%
%TO.N,GND*%
%TA.AperFunction,SMDPad,CuDef*%
G36*
G01*
X71062000Y-102202000D02*
X71062000Y-101252000D01*
G75*
G02*
X71312000Y-101002000I250000J0D01*
G01*
X71812000Y-101002000D01*
G75*
G02*
X72062000Y-101252000I0J-250000D01*
G01*
X72062000Y-102202000D01*
G75*
G02*
X71812000Y-102452000I-250000J0D01*
G01*
X71312000Y-102452000D01*
G75*
G02*
X71062000Y-102202000I0J250000D01*
G01*
G37*
%TD.AperFunction*%
%TO.P,C7,1*%
%TO.N,+5V*%
%TA.AperFunction,SMDPad,CuDef*%
G36*
G01*
X69162000Y-102202000D02*
X69162000Y-101252000D01*
G75*
G02*
X69412000Y-101002000I250000J0D01*
G01*
X69912000Y-101002000D01*
G75*
G02*
X70162000Y-101252000I0J-250000D01*
G01*
X70162000Y-102202000D01*
G75*
G02*
X69912000Y-102452000I-250000J0D01*
G01*
X69412000Y-102452000D01*
G75*
G02*
X69162000Y-102202000I0J250000D01*
G01*
G37*
%TD.AperFunction*%
%TD*%
%TO.P,C6,2*%
%TO.N,GND*%
%TA.AperFunction,SMDPad,CuDef*%
G36*
G01*
X80068000Y-101252000D02*
X80068000Y-102202000D01*
G75*
G02*
X79818000Y-102452000I-250000J0D01*
G01*
X79318000Y-102452000D01*
G75*
G02*
X79068000Y-102202000I0J250000D01*
G01*
X79068000Y-101252000D01*
G75*
G02*
X79318000Y-101002000I250000J0D01*
G01*
X79818000Y-101002000D01*
G75*
G02*
X80068000Y-101252000I0J-250000D01*
G01*
G37*
%TD.AperFunction*%
%TO.P,C6,1*%
%TO.N,+5V*%
%TA.AperFunction,SMDPad,CuDef*%
G36*
G01*
X81968000Y-101252000D02*
X81968000Y-102202000D01*
G75*
G02*
X81718000Y-102452000I-250000J0D01*
G01*
X81218000Y-102452000D01*
G75*
G02*
X80968000Y-102202000I0J250000D01*
G01*
X80968000Y-101252000D01*
G75*
G02*
X81218000Y-101002000I250000J0D01*
G01*
X81718000Y-101002000D01*
G75*
G02*
X81968000Y-101252000I0J-250000D01*
G01*
G37*
%TD.AperFunction*%
%TD*%
%TO.P,C5,2*%
%TO.N,GND*%
%TA.AperFunction,SMDPad,CuDef*%
G36*
G01*
X85184000Y-87180000D02*
X84234000Y-87180000D01*
G75*
G02*
X83984000Y-86930000I0J250000D01*
G01*
X83984000Y-86430000D01*
G75*
G02*
X84234000Y-86180000I250000J0D01*
G01*
X85184000Y-86180000D01*
G75*
G02*
X85434000Y-86430000I0J-250000D01*
G01*
X85434000Y-86930000D01*
G75*
G02*
X85184000Y-87180000I-250000J0D01*
G01*
G37*
%TD.AperFunction*%
%TO.P,C5,1*%
%TO.N,+5V*%
%TA.AperFunction,SMDPad,CuDef*%
G36*
G01*
X85184000Y-89080000D02*
X84234000Y-89080000D01*
G75*
G02*
X83984000Y-88830000I0J250000D01*
G01*
X83984000Y-88330000D01*
G75*
G02*
X84234000Y-88080000I250000J0D01*
G01*
X85184000Y-88080000D01*
G75*
G02*
X85434000Y-88330000I0J-250000D01*
G01*
X85434000Y-88830000D01*
G75*
G02*
X85184000Y-89080000I-250000J0D01*
G01*
G37*
%TD.AperFunction*%
%TD*%
%TO.P,C4,2*%
%TO.N,GND*%
%TA.AperFunction,SMDPad,CuDef*%
G36*
G01*
X68293000Y-83751000D02*
X67343000Y-83751000D01*
G75*
G02*
X67093000Y-83501000I0J250000D01*
G01*
X67093000Y-83001000D01*
G75*
G02*
X67343000Y-82751000I250000J0D01*
G01*
X68293000Y-82751000D01*
G75*
G02*
X68543000Y-83001000I0J-250000D01*
G01*
X68543000Y-83501000D01*
G75*
G02*
X68293000Y-83751000I-250000J0D01*
G01*
G37*
%TD.AperFunction*%
%TO.P,C4,1*%
%TO.N,+5V*%
%TA.AperFunction,SMDPad,CuDef*%
G36*
G01*
X68293000Y-85651000D02*
X67343000Y-85651000D01*
G75*
G02*
X67093000Y-85401000I0J250000D01*
G01*
X67093000Y-84901000D01*
G75*
G02*
X67343000Y-84651000I250000J0D01*
G01*
X68293000Y-84651000D01*
G75*
G02*
X68543000Y-84901000I0J-250000D01*
G01*
X68543000Y-85401000D01*
G75*
G02*
X68293000Y-85651000I-250000J0D01*
G01*
G37*
%TD.AperFunction*%
%TD*%
%TO.P,C3,2*%
%TO.N,GND*%
%TA.AperFunction,SMDPad,CuDef*%
G36*
G01*
X65336000Y-91600000D02*
X65336000Y-92550000D01*
G75*
G02*
X65086000Y-92800000I-250000J0D01*
G01*
X64586000Y-92800000D01*
G75*
G02*
X64336000Y-92550000I0J250000D01*
G01*
X64336000Y-91600000D01*
G75*
G02*
X64586000Y-91350000I250000J0D01*
G01*
X65086000Y-91350000D01*
G75*
G02*
X65336000Y-91600000I0J-250000D01*
G01*
G37*
%TD.AperFunction*%
%TO.P,C3,1*%
%TO.N,Net-(C3-Pad1)*%
%TA.AperFunction,SMDPad,CuDef*%
G36*
G01*
X67236000Y-91600000D02*
X67236000Y-92550000D01*
G75*
G02*
X66986000Y-92800000I-250000J0D01*
G01*
X66486000Y-92800000D01*
G75*
G02*
X66236000Y-92550000I0J250000D01*
G01*
X66236000Y-91600000D01*
G75*
G02*
X66486000Y-91350000I250000J0D01*
G01*
X66986000Y-91350000D01*
G75*
G02*
X67236000Y-91600000I0J-250000D01*
G01*
G37*
%TD.AperFunction*%
%TD*%
%TO.P,C2,2*%
%TO.N,GND*%
%TA.AperFunction,SMDPad,CuDef*%
G36*
G01*
X69883000Y-80333000D02*
X70833000Y-80333000D01*
G75*
G02*
X71083000Y-80583000I0J-250000D01*
G01*
X71083000Y-81083000D01*
G75*
G02*
X70833000Y-81333000I-250000J0D01*
G01*
X69883000Y-81333000D01*
G75*
G02*
X69633000Y-81083000I0J250000D01*
G01*
X69633000Y-80583000D01*
G75*
G02*
X69883000Y-80333000I250000J0D01*
G01*
G37*
%TD.AperFunction*%
%TO.P,C2,1*%
%TO.N,Net-(C2-Pad1)*%
%TA.AperFunction,SMDPad,CuDef*%
G36*
G01*
X69883000Y-78433000D02*
X70833000Y-78433000D01*
G75*
G02*
X71083000Y-78683000I0J-250000D01*
G01*
X71083000Y-79183000D01*
G75*
G02*
X70833000Y-79433000I-250000J0D01*
G01*
X69883000Y-79433000D01*
G75*
G02*
X69633000Y-79183000I0J250000D01*
G01*
X69633000Y-78683000D01*
G75*
G02*
X69883000Y-78433000I250000J0D01*
G01*
G37*
%TD.AperFunction*%
%TD*%
%TO.P,C1,2*%
%TO.N,GND*%
%TA.AperFunction,SMDPad,CuDef*%
G36*
G01*
X79723000Y-79433000D02*
X78773000Y-79433000D01*
G75*
G02*
X78523000Y-79183000I0J250000D01*
G01*
X78523000Y-78683000D01*
G75*
G02*
X78773000Y-78433000I250000J0D01*
G01*
X79723000Y-78433000D01*
G75*
G02*
X79973000Y-78683000I0J-250000D01*
G01*
X79973000Y-79183000D01*
G75*
G02*
X79723000Y-79433000I-250000J0D01*
G01*
G37*
%TD.AperFunction*%
%TO.P,C1,1*%
%TO.N,Net-(C1-Pad1)*%
%TA.AperFunction,SMDPad,CuDef*%
G36*
G01*
X79723000Y-81333000D02*
X78773000Y-81333000D01*
G75*
G02*
X78523000Y-81083000I0J250000D01*
G01*
X78523000Y-80583000D01*
G75*
G02*
X78773000Y-80333000I250000J0D01*
G01*
X79723000Y-80333000D01*
G75*
G02*
X79973000Y-80583000I0J-250000D01*
G01*
X79973000Y-81083000D01*
G75*
G02*
X79723000Y-81333000I-250000J0D01*
G01*
G37*
%TD.AperFunction*%
%TD*%
D20*
%TO.N,+5V*%
X86233000Y-90043000D03*
X83820000Y-101727000D03*
X67564000Y-96393000D03*
X68199000Y-91821000D03*
%TO.N,Net-(R1-Pad2)*%
X61214000Y-83820000D03*
X57531000Y-103632000D03*
X65659000Y-83820000D03*
X71755000Y-85532998D03*
%TD*%
D21*
%TO.N,GND*%
X79148000Y-79033000D02*
X79248000Y-78933000D01*
X75903000Y-79033000D02*
X79148000Y-79033000D01*
X74005902Y-80733000D02*
X73703000Y-80733000D01*
X75705902Y-79033000D02*
X74005902Y-80733000D01*
X75903000Y-79033000D02*
X75705902Y-79033000D01*
X68895000Y-80833000D02*
X70358000Y-80833000D01*
X69215000Y-77089000D02*
X68453000Y-77851000D01*
X68453000Y-80391000D02*
X68895000Y-80833000D01*
X78359000Y-77089000D02*
X69215000Y-77089000D01*
X68453000Y-77851000D02*
X68453000Y-80391000D01*
X79248000Y-77978000D02*
X78359000Y-77089000D01*
X79248000Y-78933000D02*
X79248000Y-77978000D01*
X70358000Y-80833000D02*
X70358000Y-81915000D01*
X73965000Y-86883000D02*
X73965000Y-85522000D01*
X71562000Y-83251000D02*
X71628000Y-83185000D01*
X67818000Y-83251000D02*
X71562000Y-83251000D01*
X71628000Y-83185000D02*
X70358000Y-81915000D01*
X73965000Y-85522000D02*
X71628000Y-83185000D01*
X84709000Y-86680000D02*
X82103000Y-86680000D01*
X81265000Y-87518000D02*
X81265000Y-88583000D01*
X82103000Y-86680000D02*
X81265000Y-87518000D01*
X84709000Y-98702500D02*
X84709000Y-102870000D01*
X84709000Y-102870000D02*
X84201000Y-103378000D01*
X84201000Y-103378000D02*
X80264000Y-103378000D01*
X79568000Y-102682000D02*
X79568000Y-101727000D01*
X80264000Y-103378000D02*
X79568000Y-102682000D01*
X79568000Y-101727000D02*
X79568000Y-100523000D01*
X78765000Y-99720000D02*
X78765000Y-98283000D01*
X79568000Y-100523000D02*
X78765000Y-99720000D01*
X71562000Y-101727000D02*
X71562000Y-100269000D01*
X72365000Y-99466000D02*
X72365000Y-98283000D01*
X71562000Y-100269000D02*
X72365000Y-99466000D01*
X76327000Y-95250000D02*
X73660000Y-95250000D01*
X72365000Y-96545000D02*
X72365000Y-98283000D01*
X73660000Y-95250000D02*
X72365000Y-96545000D01*
X76327000Y-95250000D02*
X77089000Y-95250000D01*
X78765000Y-96926000D02*
X78765000Y-98283000D01*
X77089000Y-95250000D02*
X78765000Y-96926000D01*
X79692000Y-88583000D02*
X81265000Y-88583000D01*
X77089000Y-91186000D02*
X79692000Y-88583000D01*
X77089000Y-95250000D02*
X77089000Y-91186000D01*
X73965000Y-88062000D02*
X73965000Y-86883000D01*
X77089000Y-91186000D02*
X73965000Y-88062000D01*
X69865000Y-93383000D02*
X69803490Y-93444510D01*
X64836000Y-93157000D02*
X64836000Y-92075000D01*
X65062000Y-93383000D02*
X64836000Y-93157000D01*
X71793000Y-93383000D02*
X73660000Y-95250000D01*
X69865000Y-93383000D02*
X71793000Y-93383000D01*
X56591000Y-79906250D02*
X56591000Y-81356000D01*
X56591000Y-81356000D02*
X60198000Y-84963000D01*
X60198000Y-84963000D02*
X60198000Y-91186000D01*
X62395000Y-93383000D02*
X65062000Y-93383000D01*
X60198000Y-91186000D02*
X62395000Y-93383000D01*
X49509750Y-107418750D02*
X49509750Y-108437750D01*
X49509750Y-108437750D02*
X50165000Y-109093000D01*
X50165000Y-109093000D02*
X68199000Y-109093000D01*
X71562000Y-105730000D02*
X71562000Y-101727000D01*
X68199000Y-109093000D02*
X71562000Y-105730000D01*
X69865000Y-93383000D02*
X65062000Y-93383000D01*
D22*
%TO.N,Net-(C1-Pad1)*%
X79148000Y-80733000D02*
X79248000Y-80833000D01*
X75903000Y-80733000D02*
X79148000Y-80733000D01*
X75565000Y-86883000D02*
X75565000Y-85344000D01*
X75903000Y-85006000D02*
X75903000Y-80733000D01*
X75565000Y-85344000D02*
X75903000Y-85006000D01*
%TO.N,Net-(C2-Pad1)*%
X70458000Y-79033000D02*
X70358000Y-78933000D01*
X73703000Y-79033000D02*
X70458000Y-79033000D01*
X74765000Y-86883000D02*
X74765000Y-85306000D01*
X74765000Y-85306000D02*
X72136000Y-82677000D01*
X73514398Y-79033000D02*
X73703000Y-79033000D01*
X72136000Y-80411398D02*
X73514398Y-79033000D01*
X72136000Y-82677000D02*
X72136000Y-80411398D01*
%TO.N,Net-(C3-Pad1)*%
X66736000Y-92075000D02*
X67244000Y-92583000D01*
X67244000Y-92583000D02*
X69865000Y-92583000D01*
D21*
%TO.N,+5V*%
X84709000Y-88580000D02*
X84709000Y-89027000D01*
X84353000Y-89383000D02*
X81265000Y-89383000D01*
X84709000Y-89027000D02*
X84353000Y-89383000D01*
X81468000Y-101727000D02*
X81468000Y-101407000D01*
X79565000Y-99504000D02*
X79565000Y-98283000D01*
X81468000Y-101407000D02*
X79565000Y-99504000D01*
X69662000Y-101727000D02*
X69662000Y-99629000D01*
X69662000Y-99629000D02*
X70993000Y-98298000D01*
X71550000Y-98298000D02*
X71565000Y-98283000D01*
X70993000Y-98298000D02*
X71550000Y-98298000D01*
X63283500Y-85151000D02*
X63246000Y-85113500D01*
X67818000Y-85151000D02*
X63283500Y-85151000D01*
X69662000Y-101727000D02*
X68326000Y-101727000D01*
X68326000Y-101727000D02*
X67437000Y-100838000D01*
X67437000Y-100838000D02*
X67437000Y-96520000D01*
X67437000Y-96520000D02*
X67564000Y-96393000D01*
X69840000Y-95758000D02*
X69865000Y-95783000D01*
X68199000Y-95758000D02*
X69840000Y-95758000D01*
X67437000Y-96520000D02*
X67437000Y-96393000D01*
X67437000Y-96393000D02*
X66802000Y-95758000D01*
X66802000Y-95758000D02*
X50038000Y-95758000D01*
X49434750Y-95154750D02*
X49434750Y-93475000D01*
X50038000Y-95758000D02*
X49434750Y-95154750D01*
X84709000Y-88580000D02*
X85913000Y-88580000D01*
X85913000Y-88580000D02*
X86233000Y-88900000D01*
X86233000Y-88900000D02*
X86233000Y-90043000D01*
X83820000Y-101727000D02*
X81468000Y-101727000D01*
X67564000Y-96393000D02*
X68199000Y-95758000D01*
X69827000Y-91821000D02*
X69865000Y-91783000D01*
X68199000Y-91821000D02*
X69827000Y-91821000D01*
X68199000Y-91821000D02*
X68199000Y-88900000D01*
X67818000Y-88519000D02*
X67818000Y-85151000D01*
X68199000Y-88900000D02*
X67818000Y-88519000D01*
X67818000Y-85151000D02*
X68316829Y-84652171D01*
X68316829Y-84652171D02*
X72065171Y-84652171D01*
X72065171Y-84652171D02*
X73165000Y-85752000D01*
X73165000Y-85752000D02*
X73165000Y-86883000D01*
D22*
%TO.N,Net-(D1-Pad2)*%
X98385000Y-78685000D02*
X102688000Y-78685000D01*
X104013000Y-80010000D02*
X104013000Y-81535000D01*
X102688000Y-78685000D02*
X104013000Y-80010000D01*
%TO.N,ROW0*%
X123063000Y-84835000D02*
X121667000Y-84835000D01*
X120996099Y-85505901D02*
X105883099Y-85505901D01*
X121667000Y-84835000D02*
X120996099Y-85505901D01*
X105212198Y-84835000D02*
X104013000Y-84835000D01*
X105883099Y-85505901D02*
X105212198Y-84835000D01*
X81265000Y-91783000D02*
X99606000Y-91783000D01*
X104013000Y-87376000D02*
X104013000Y-84835000D01*
X99606000Y-91783000D02*
X104013000Y-87376000D01*
%TO.N,Net-(D2-Pad2)*%
X117435000Y-78685000D02*
X121738000Y-78685000D01*
X123063000Y-80010000D02*
X123063000Y-81535000D01*
X121738000Y-78685000D02*
X123063000Y-80010000D01*
%TO.N,Net-(D3-Pad2)*%
X98385000Y-97735000D02*
X102688000Y-97735000D01*
X104013000Y-99060000D02*
X104013000Y-100585000D01*
X102688000Y-97735000D02*
X104013000Y-99060000D01*
%TO.N,ROW1*%
X105825901Y-104555901D02*
X105155000Y-103885000D01*
X121250099Y-104555901D02*
X105825901Y-104555901D01*
X105155000Y-103885000D02*
X104013000Y-103885000D01*
X121921000Y-103885000D02*
X121250099Y-104555901D01*
X123063000Y-103885000D02*
X121921000Y-103885000D01*
X91346939Y-104555901D02*
X100676099Y-104555901D01*
X89602999Y-100242981D02*
X89602999Y-102811961D01*
X89602999Y-102811961D02*
X91346939Y-104555901D01*
X83543018Y-94183000D02*
X89602999Y-100242981D01*
X81265000Y-94183000D02*
X83543018Y-94183000D01*
X101347000Y-103885000D02*
X104013000Y-103885000D01*
X100676099Y-104555901D02*
X101347000Y-103885000D01*
%TO.N,Net-(D4-Pad2)*%
X117435000Y-97735000D02*
X121611000Y-97735000D01*
X121611000Y-97735000D02*
X123063000Y-99187000D01*
X123063000Y-99187000D02*
X123063000Y-100585000D01*
D21*
%TO.N,VCC*%
X49434750Y-84737500D02*
X49434750Y-90675000D01*
X53391000Y-80781250D02*
X49434750Y-84737500D01*
X53391000Y-79906250D02*
X53391000Y-80781250D01*
D22*
%TO.N,COL0*%
X85763000Y-93383000D02*
X92075000Y-99695000D01*
X81265000Y-93383000D02*
X85763000Y-93383000D01*
%TO.N,COL1*%
X104013000Y-92583000D02*
X111125000Y-99695000D01*
X81265000Y-92583000D02*
X104013000Y-92583000D01*
%TO.N,Net-(R1-Pad2)*%
X63246000Y-83288500D02*
X63142500Y-83288500D01*
X63246000Y-83288500D02*
X61745500Y-83288500D01*
X61745500Y-83288500D02*
X61214000Y-83820000D01*
X55796500Y-103632000D02*
X55709750Y-103718750D01*
X57531000Y-103632000D02*
X55796500Y-103632000D01*
X63246000Y-83288500D02*
X65127500Y-83288500D01*
X65127500Y-83288500D02*
X65659000Y-83820000D01*
X72365000Y-86142998D02*
X72365000Y-86883000D01*
X71755000Y-85532998D02*
X72365000Y-86142998D01*
%TO.N,D+*%
X54991000Y-81285250D02*
X56509750Y-82804000D01*
X54991000Y-79906250D02*
X54991000Y-81285250D01*
X56509750Y-83950000D02*
X56578500Y-84018750D01*
X56509750Y-82804000D02*
X56509750Y-83950000D01*
%TO.N,Net-(R2-Pad1)*%
X56578500Y-85843750D02*
X56633750Y-85843750D01*
X56633750Y-85843750D02*
X56642000Y-85852000D01*
X56464000Y-94183000D02*
X69865000Y-94183000D01*
X54991000Y-92710000D02*
X56464000Y-94183000D01*
X54991000Y-88900000D02*
X54991000Y-92710000D01*
X56546750Y-87344250D02*
X54991000Y-88900000D01*
X56546750Y-85843750D02*
X56546750Y-87344250D01*
%TO.N,D-*%
X52609750Y-82866500D02*
X52609750Y-84018750D01*
X54191000Y-81285250D02*
X52609750Y-82866500D01*
X54191000Y-79906250D02*
X54191000Y-81285250D01*
%TO.N,Net-(R3-Pad1)*%
X52609750Y-85843750D02*
X52609750Y-87280750D01*
X52609750Y-87280750D02*
X54229000Y-88900000D01*
X54229000Y-88900000D02*
X54229000Y-92964000D01*
X54229000Y-92964000D02*
X56261000Y-94996000D01*
X69852000Y-94996000D02*
X69865000Y-94983000D01*
X56261000Y-94996000D02*
X69852000Y-94996000D01*
%TO.N,Net-(R4-Pad2)*%
X84709000Y-96877500D02*
X83288500Y-96877500D01*
X82994000Y-96583000D02*
X81265000Y-96583000D01*
X83288500Y-96877500D02*
X82994000Y-96583000D01*
%TD*%
%TO.N,GND*%
X49962401Y-74335216D02*
X49877487Y-74615139D01*
X49856000Y-74833300D01*
X49856000Y-75979199D01*
X49877487Y-76197360D01*
X49962401Y-76477283D01*
X50100294Y-76735263D01*
X50285866Y-76961384D01*
X50511986Y-77146956D01*
X50769966Y-77284849D01*
X51049889Y-77369763D01*
X51341000Y-77398435D01*
X51632110Y-77369763D01*
X51912033Y-77284849D01*
X52170013Y-77146956D01*
X52396134Y-76961384D01*
X52581706Y-76735264D01*
X52719599Y-76477284D01*
X52804513Y-76197361D01*
X52826000Y-75979200D01*
X52826000Y-74833300D01*
X52804513Y-74615139D01*
X52719599Y-74335216D01*
X52711466Y-74320000D01*
X57270534Y-74320000D01*
X57262401Y-74335216D01*
X57177487Y-74615139D01*
X57156000Y-74833300D01*
X57156000Y-75979199D01*
X57177487Y-76197360D01*
X57262401Y-76477283D01*
X57400294Y-76735263D01*
X57585866Y-76961384D01*
X57811986Y-77146956D01*
X58069966Y-77284849D01*
X58349889Y-77369763D01*
X58641000Y-77398435D01*
X58932110Y-77369763D01*
X59212033Y-77284849D01*
X59470013Y-77146956D01*
X59696134Y-76961384D01*
X59881706Y-76735264D01*
X60019599Y-76477284D01*
X60104513Y-76197361D01*
X60126000Y-75979200D01*
X60126000Y-74833300D01*
X60104513Y-74615139D01*
X60019599Y-74335216D01*
X60011466Y-74320000D01*
X85598000Y-74320000D01*
X85598000Y-85566176D01*
X85558482Y-85554188D01*
X85434000Y-85541928D01*
X84994750Y-85545000D01*
X84836000Y-85703750D01*
X84836000Y-86553000D01*
X84856000Y-86553000D01*
X84856000Y-86807000D01*
X84836000Y-86807000D01*
X84836000Y-86827000D01*
X84582000Y-86827000D01*
X84582000Y-86807000D01*
X83507750Y-86807000D01*
X83349000Y-86965750D01*
X83345928Y-87180000D01*
X83358188Y-87304482D01*
X83394498Y-87424180D01*
X83453463Y-87534494D01*
X83532815Y-87631185D01*
X83612594Y-87696658D01*
X83606038Y-87702038D01*
X83495595Y-87836614D01*
X83413528Y-87990150D01*
X83362992Y-88156746D01*
X83345928Y-88330000D01*
X83345928Y-88557500D01*
X82650000Y-88557500D01*
X82650000Y-88455998D01*
X82491252Y-88455998D01*
X82650000Y-88297250D01*
X82640177Y-88180369D01*
X82603265Y-88060855D01*
X82543746Y-87950839D01*
X82463908Y-87854549D01*
X82366818Y-87775684D01*
X82256208Y-87717276D01*
X82136329Y-87681570D01*
X82011787Y-87669936D01*
X81550750Y-87673000D01*
X81392000Y-87831750D01*
X81392000Y-88456000D01*
X81412000Y-88456000D01*
X81412000Y-88469928D01*
X80515000Y-88469928D01*
X80390518Y-88482188D01*
X80270820Y-88518498D01*
X80160506Y-88577463D01*
X80063815Y-88656815D01*
X79984463Y-88753506D01*
X79972083Y-88776667D01*
X79880000Y-88868750D01*
X79889546Y-88982337D01*
X79889188Y-88983518D01*
X79876928Y-89108000D01*
X79876928Y-89658000D01*
X79889188Y-89782482D01*
X79889345Y-89783000D01*
X79889188Y-89783518D01*
X79876928Y-89908000D01*
X79876928Y-90458000D01*
X79889188Y-90582482D01*
X79889345Y-90583000D01*
X79889188Y-90583518D01*
X79876928Y-90708000D01*
X79876928Y-91258000D01*
X79889188Y-91382482D01*
X79889345Y-91383000D01*
X79889188Y-91383518D01*
X79876928Y-91508000D01*
X79876928Y-92058000D01*
X79889188Y-92182482D01*
X79889345Y-92183000D01*
X79889188Y-92183518D01*
X79876928Y-92308000D01*
X79876928Y-92858000D01*
X79889188Y-92982482D01*
X79889345Y-92983000D01*
X79889188Y-92983518D01*
X79876928Y-93108000D01*
X79876928Y-93658000D01*
X79889188Y-93782482D01*
X79889345Y-93783000D01*
X79889188Y-93783518D01*
X79876928Y-93908000D01*
X79876928Y-94458000D01*
X79889188Y-94582482D01*
X79889345Y-94583000D01*
X79889188Y-94583518D01*
X79876928Y-94708000D01*
X79876928Y-95258000D01*
X79889188Y-95382482D01*
X79889345Y-95383000D01*
X79889188Y-95383518D01*
X79876928Y-95508000D01*
X79876928Y-96058000D01*
X79889188Y-96182482D01*
X79889345Y-96183000D01*
X79889188Y-96183518D01*
X79876928Y-96308000D01*
X79876928Y-96858000D01*
X79880962Y-96898962D01*
X79840000Y-96894928D01*
X79290000Y-96894928D01*
X79165518Y-96907188D01*
X79164337Y-96907546D01*
X79050750Y-96898000D01*
X78958667Y-96990083D01*
X78935506Y-97002463D01*
X78838815Y-97081815D01*
X78765000Y-97171759D01*
X78691185Y-97081815D01*
X78594494Y-97002463D01*
X78571333Y-96990083D01*
X78479250Y-96898000D01*
X78365663Y-96907546D01*
X78364482Y-96907188D01*
X78240000Y-96894928D01*
X77690000Y-96894928D01*
X77565518Y-96907188D01*
X77565000Y-96907345D01*
X77564482Y-96907188D01*
X77440000Y-96894928D01*
X76890000Y-96894928D01*
X76765518Y-96907188D01*
X76765000Y-96907345D01*
X76764482Y-96907188D01*
X76640000Y-96894928D01*
X76090000Y-96894928D01*
X75965518Y-96907188D01*
X75965000Y-96907345D01*
X75964482Y-96907188D01*
X75840000Y-96894928D01*
X75290000Y-96894928D01*
X75165518Y-96907188D01*
X75165000Y-96907345D01*
X75164482Y-96907188D01*
X75040000Y-96894928D01*
X74490000Y-96894928D01*
X74365518Y-96907188D01*
X74365000Y-96907345D01*
X74364482Y-96907188D01*
X74240000Y-96894928D01*
X73690000Y-96894928D01*
X73565518Y-96907188D01*
X73565000Y-96907345D01*
X73564482Y-96907188D01*
X73440000Y-96894928D01*
X72890000Y-96894928D01*
X72765518Y-96907188D01*
X72764337Y-96907546D01*
X72650750Y-96898000D01*
X72558667Y-96990083D01*
X72535506Y-97002463D01*
X72438815Y-97081815D01*
X72365000Y-97171759D01*
X72291185Y-97081815D01*
X72194494Y-97002463D01*
X72171333Y-96990083D01*
X72079250Y-96898000D01*
X71965663Y-96907546D01*
X71964482Y-96907188D01*
X71840000Y-96894928D01*
X71290000Y-96894928D01*
X71249038Y-96898962D01*
X71253072Y-96858000D01*
X71253072Y-96308000D01*
X71240812Y-96183518D01*
X71240655Y-96183000D01*
X71240812Y-96182482D01*
X71253072Y-96058000D01*
X71253072Y-95508000D01*
X71240812Y-95383518D01*
X71240655Y-95383000D01*
X71240812Y-95382482D01*
X71253072Y-95258000D01*
X71253072Y-94708000D01*
X71240812Y-94583518D01*
X71240655Y-94583000D01*
X71240812Y-94582482D01*
X71253072Y-94458000D01*
X71253072Y-93908000D01*
X71240812Y-93783518D01*
X71240454Y-93782337D01*
X71250000Y-93668750D01*
X71157917Y-93576667D01*
X71145537Y-93553506D01*
X71066185Y-93456815D01*
X70976241Y-93383000D01*
X71066185Y-93309185D01*
X71145537Y-93212494D01*
X71157917Y-93189333D01*
X71250000Y-93097250D01*
X71240454Y-92983663D01*
X71240812Y-92982482D01*
X71253072Y-92858000D01*
X71253072Y-92308000D01*
X71240812Y-92183518D01*
X71240655Y-92183000D01*
X71240812Y-92182482D01*
X71253072Y-92058000D01*
X71253072Y-91508000D01*
X71240812Y-91383518D01*
X71240655Y-91383000D01*
X71240812Y-91382482D01*
X71253072Y-91258000D01*
X71253072Y-90708000D01*
X71240812Y-90583518D01*
X71240655Y-90583000D01*
X71240812Y-90582482D01*
X71253072Y-90458000D01*
X71253072Y-89908000D01*
X71240812Y-89783518D01*
X71240655Y-89783000D01*
X71240812Y-89782482D01*
X71253072Y-89658000D01*
X71253072Y-89108000D01*
X71240812Y-88983518D01*
X71240655Y-88983000D01*
X71240812Y-88982482D01*
X71253072Y-88858000D01*
X71253072Y-88308000D01*
X71249038Y-88267038D01*
X71290000Y-88271072D01*
X71840000Y-88271072D01*
X71964482Y-88258812D01*
X71965000Y-88258655D01*
X71965518Y-88258812D01*
X72090000Y-88271072D01*
X72640000Y-88271072D01*
X72764482Y-88258812D01*
X72765000Y-88258655D01*
X72765518Y-88258812D01*
X72890000Y-88271072D01*
X73440000Y-88271072D01*
X73564482Y-88258812D01*
X73565663Y-88258454D01*
X73679250Y-88268000D01*
X73771333Y-88175917D01*
X73794494Y-88163537D01*
X73891185Y-88084185D01*
X73965000Y-87994241D01*
X74038815Y-88084185D01*
X74135506Y-88163537D01*
X74158667Y-88175917D01*
X74250750Y-88268000D01*
X74364337Y-88258454D01*
X74365518Y-88258812D01*
X74490000Y-88271072D01*
X75040000Y-88271072D01*
X75164482Y-88258812D01*
X75165000Y-88258655D01*
X75165518Y-88258812D01*
X75290000Y-88271072D01*
X75840000Y-88271072D01*
X75964482Y-88258812D01*
X75965000Y-88258655D01*
X75965518Y-88258812D01*
X76090000Y-88271072D01*
X76640000Y-88271072D01*
X76764482Y-88258812D01*
X76765000Y-88258655D01*
X76765518Y-88258812D01*
X76890000Y-88271072D01*
X77440000Y-88271072D01*
X77564482Y-88258812D01*
X77565000Y-88258655D01*
X77565518Y-88258812D01*
X77690000Y-88271072D01*
X78240000Y-88271072D01*
X78364482Y-88258812D01*
X78365000Y-88258655D01*
X78365518Y-88258812D01*
X78490000Y-88271072D01*
X79040000Y-88271072D01*
X79164482Y-88258812D01*
X79165000Y-88258655D01*
X79165518Y-88258812D01*
X79290000Y-88271072D01*
X79840000Y-88271072D01*
X79882552Y-88266881D01*
X79880000Y-88297250D01*
X80038750Y-88456000D01*
X81138000Y-88456000D01*
X81138000Y-87831750D01*
X80979250Y-87673000D01*
X80518213Y-87669936D01*
X80474028Y-87674064D01*
X80478072Y-87633000D01*
X80478072Y-86180000D01*
X83345928Y-86180000D01*
X83349000Y-86394250D01*
X83507750Y-86553000D01*
X84582000Y-86553000D01*
X84582000Y-85703750D01*
X84423250Y-85545000D01*
X83984000Y-85541928D01*
X83859518Y-85554188D01*
X83739820Y-85590498D01*
X83629506Y-85649463D01*
X83532815Y-85728815D01*
X83453463Y-85825506D01*
X83394498Y-85935820D01*
X83358188Y-86055518D01*
X83345928Y-86180000D01*
X80478072Y-86180000D01*
X80478072Y-86133000D01*
X80465812Y-86008518D01*
X80429502Y-85888820D01*
X80370537Y-85778506D01*
X80291185Y-85681815D01*
X80194494Y-85602463D01*
X80084180Y-85543498D01*
X79964482Y-85507188D01*
X79840000Y-85494928D01*
X79290000Y-85494928D01*
X79165518Y-85507188D01*
X79165000Y-85507345D01*
X79164482Y-85507188D01*
X79040000Y-85494928D01*
X78490000Y-85494928D01*
X78365518Y-85507188D01*
X78365000Y-85507345D01*
X78364482Y-85507188D01*
X78240000Y-85494928D01*
X77690000Y-85494928D01*
X77565518Y-85507188D01*
X77565000Y-85507345D01*
X77564482Y-85507188D01*
X77440000Y-85494928D01*
X76890000Y-85494928D01*
X76765518Y-85507188D01*
X76765000Y-85507345D01*
X76764482Y-85507188D01*
X76640000Y-85494928D01*
X76487503Y-85494928D01*
X76539645Y-85431392D01*
X76610402Y-85299015D01*
X76653974Y-85155378D01*
X76665000Y-85043426D01*
X76665000Y-85043424D01*
X76668686Y-85006001D01*
X76665000Y-84968578D01*
X76665000Y-81964966D01*
X76727482Y-81958812D01*
X76847180Y-81922502D01*
X76957494Y-81863537D01*
X77054185Y-81784185D01*
X77133537Y-81687494D01*
X77192502Y-81577180D01*
X77217431Y-81495000D01*
X77991093Y-81495000D01*
X78034595Y-81576386D01*
X78145038Y-81710962D01*
X78279614Y-81821405D01*
X78433150Y-81903472D01*
X78599746Y-81954008D01*
X78773000Y-81971072D01*
X79723000Y-81971072D01*
X79896254Y-81954008D01*
X80062850Y-81903472D01*
X80216386Y-81821405D01*
X80350962Y-81710962D01*
X80461405Y-81576386D01*
X80543472Y-81422850D01*
X80594008Y-81256254D01*
X80611072Y-81083000D01*
X80611072Y-80583000D01*
X80594008Y-80409746D01*
X80543472Y-80243150D01*
X80461405Y-80089614D01*
X80350962Y-79955038D01*
X80344406Y-79949658D01*
X80424185Y-79884185D01*
X80503537Y-79787494D01*
X80562502Y-79677180D01*
X80598812Y-79557482D01*
X80611072Y-79433000D01*
X80608000Y-79218750D01*
X80449250Y-79060000D01*
X79375000Y-79060000D01*
X79375000Y-79080000D01*
X79121000Y-79080000D01*
X79121000Y-79060000D01*
X78046750Y-79060000D01*
X77888000Y-79218750D01*
X77884928Y-79433000D01*
X77897188Y-79557482D01*
X77933498Y-79677180D01*
X77992463Y-79787494D01*
X78071815Y-79884185D01*
X78151594Y-79949658D01*
X78145038Y-79955038D01*
X78131938Y-79971000D01*
X77217431Y-79971000D01*
X77192502Y-79888820D01*
X77189391Y-79883000D01*
X77192502Y-79877180D01*
X77228812Y-79757482D01*
X77241072Y-79633000D01*
X77238000Y-79318750D01*
X77079250Y-79160000D01*
X76030000Y-79160000D01*
X76030000Y-79180000D01*
X75776000Y-79180000D01*
X75776000Y-79160000D01*
X75756000Y-79160000D01*
X75756000Y-78906000D01*
X75776000Y-78906000D01*
X75776000Y-77956750D01*
X76030000Y-77956750D01*
X76030000Y-78906000D01*
X77079250Y-78906000D01*
X77238000Y-78747250D01*
X77241072Y-78433000D01*
X77884928Y-78433000D01*
X77888000Y-78647250D01*
X78046750Y-78806000D01*
X79121000Y-78806000D01*
X79121000Y-77956750D01*
X79375000Y-77956750D01*
X79375000Y-78806000D01*
X80449250Y-78806000D01*
X80608000Y-78647250D01*
X80611072Y-78433000D01*
X80598812Y-78308518D01*
X80562502Y-78188820D01*
X80503537Y-78078506D01*
X80424185Y-77981815D01*
X80327494Y-77902463D01*
X80217180Y-77843498D01*
X80097482Y-77807188D01*
X79973000Y-77794928D01*
X79533750Y-77798000D01*
X79375000Y-77956750D01*
X79121000Y-77956750D01*
X78962250Y-77798000D01*
X78523000Y-77794928D01*
X78398518Y-77807188D01*
X78278820Y-77843498D01*
X78168506Y-77902463D01*
X78071815Y-77981815D01*
X77992463Y-78078506D01*
X77933498Y-78188820D01*
X77897188Y-78308518D01*
X77884928Y-78433000D01*
X77241072Y-78433000D01*
X77228812Y-78308518D01*
X77192502Y-78188820D01*
X77133537Y-78078506D01*
X77054185Y-77981815D01*
X76957494Y-77902463D01*
X76847180Y-77843498D01*
X76727482Y-77807188D01*
X76603000Y-77794928D01*
X76188750Y-77798000D01*
X76030000Y-77956750D01*
X75776000Y-77956750D01*
X75617250Y-77798000D01*
X75203000Y-77794928D01*
X75078518Y-77807188D01*
X74958820Y-77843498D01*
X74848506Y-77902463D01*
X74803000Y-77939809D01*
X74757494Y-77902463D01*
X74647180Y-77843498D01*
X74527482Y-77807188D01*
X74403000Y-77794928D01*
X73003000Y-77794928D01*
X72878518Y-77807188D01*
X72758820Y-77843498D01*
X72648506Y-77902463D01*
X72551815Y-77981815D01*
X72472463Y-78078506D01*
X72413498Y-78188820D01*
X72388569Y-78271000D01*
X71614907Y-78271000D01*
X71571405Y-78189614D01*
X71460962Y-78055038D01*
X71326386Y-77944595D01*
X71172850Y-77862528D01*
X71006254Y-77811992D01*
X70833000Y-77794928D01*
X69883000Y-77794928D01*
X69709746Y-77811992D01*
X69543150Y-77862528D01*
X69389614Y-77944595D01*
X69255038Y-78055038D01*
X69144595Y-78189614D01*
X69062528Y-78343150D01*
X69011992Y-78509746D01*
X68994928Y-78683000D01*
X68994928Y-79183000D01*
X69011992Y-79356254D01*
X69062528Y-79522850D01*
X69144595Y-79676386D01*
X69255038Y-79810962D01*
X69261594Y-79816342D01*
X69181815Y-79881815D01*
X69102463Y-79978506D01*
X69043498Y-80088820D01*
X69007188Y-80208518D01*
X68994928Y-80333000D01*
X68998000Y-80547250D01*
X69156750Y-80706000D01*
X70231000Y-80706000D01*
X70231000Y-80686000D01*
X70485000Y-80686000D01*
X70485000Y-80706000D01*
X70505000Y-80706000D01*
X70505000Y-80960000D01*
X70485000Y-80960000D01*
X70485000Y-81809250D01*
X70643750Y-81968000D01*
X71083000Y-81971072D01*
X71207482Y-81958812D01*
X71327180Y-81922502D01*
X71374000Y-81897476D01*
X71374000Y-82639576D01*
X71370314Y-82677000D01*
X71374000Y-82714423D01*
X71374000Y-82714425D01*
X71385026Y-82826377D01*
X71428598Y-82970014D01*
X71428599Y-82970015D01*
X71499355Y-83102392D01*
X71529499Y-83139122D01*
X71594578Y-83218422D01*
X71623654Y-83242284D01*
X72219219Y-83837849D01*
X72105724Y-83826671D01*
X72105721Y-83826671D01*
X72065171Y-83822677D01*
X72024621Y-83826671D01*
X69173619Y-83826671D01*
X69181072Y-83751000D01*
X69178000Y-83536750D01*
X69019250Y-83378000D01*
X67945000Y-83378000D01*
X67945000Y-83398000D01*
X67691000Y-83398000D01*
X67691000Y-83378000D01*
X67671000Y-83378000D01*
X67671000Y-83124000D01*
X67691000Y-83124000D01*
X67691000Y-82274750D01*
X67945000Y-82274750D01*
X67945000Y-83124000D01*
X69019250Y-83124000D01*
X69178000Y-82965250D01*
X69181072Y-82751000D01*
X69168812Y-82626518D01*
X69132502Y-82506820D01*
X69073537Y-82396506D01*
X68994185Y-82299815D01*
X68897494Y-82220463D01*
X68787180Y-82161498D01*
X68667482Y-82125188D01*
X68543000Y-82112928D01*
X68103750Y-82116000D01*
X67945000Y-82274750D01*
X67691000Y-82274750D01*
X67532250Y-82116000D01*
X67093000Y-82112928D01*
X66968518Y-82125188D01*
X66848820Y-82161498D01*
X66738506Y-82220463D01*
X66641815Y-82299815D01*
X66562463Y-82396506D01*
X66503498Y-82506820D01*
X66467188Y-82626518D01*
X66454928Y-82751000D01*
X66458000Y-82965250D01*
X66616748Y-83123998D01*
X66458000Y-83123998D01*
X66458000Y-83155289D01*
X66318774Y-83016063D01*
X66149256Y-82902795D01*
X65960898Y-82824774D01*
X65760939Y-82785000D01*
X65701630Y-82785000D01*
X65692784Y-82776154D01*
X65668922Y-82747078D01*
X65552892Y-82651855D01*
X65420515Y-82581098D01*
X65276878Y-82537526D01*
X65164926Y-82526500D01*
X65164923Y-82526500D01*
X65127500Y-82522814D01*
X65090077Y-82526500D01*
X64429388Y-82526500D01*
X64323962Y-82398038D01*
X64189387Y-82287595D01*
X64035851Y-82205528D01*
X63869255Y-82154992D01*
X63696001Y-82137928D01*
X62795999Y-82137928D01*
X62622745Y-82154992D01*
X62456149Y-82205528D01*
X62302613Y-82287595D01*
X62168038Y-82398038D01*
X62062612Y-82526500D01*
X61782923Y-82526500D01*
X61745500Y-82522814D01*
X61708077Y-82526500D01*
X61708074Y-82526500D01*
X61596122Y-82537526D01*
X61452485Y-82581098D01*
X61390864Y-82614035D01*
X61320107Y-82651855D01*
X61278320Y-82686149D01*
X61204078Y-82747078D01*
X61180216Y-82776154D01*
X61171370Y-82785000D01*
X61112061Y-82785000D01*
X60912102Y-82824774D01*
X60723744Y-82902795D01*
X60554226Y-83016063D01*
X60410063Y-83160226D01*
X60296795Y-83329744D01*
X60218774Y-83518102D01*
X60179000Y-83718061D01*
X60179000Y-83921939D01*
X60218774Y-84121898D01*
X60296795Y-84310256D01*
X60410063Y-84479774D01*
X60554226Y-84623937D01*
X60723744Y-84737205D01*
X60912102Y-84815226D01*
X61112061Y-84855000D01*
X61315939Y-84855000D01*
X61515898Y-84815226D01*
X61704256Y-84737205D01*
X61873774Y-84623937D01*
X61970723Y-84526988D01*
X61924992Y-84677745D01*
X61907928Y-84850999D01*
X61907928Y-85376001D01*
X61924992Y-85549255D01*
X61975528Y-85715851D01*
X62057595Y-85869387D01*
X62168038Y-86003962D01*
X62302613Y-86114405D01*
X62456149Y-86196472D01*
X62622745Y-86247008D01*
X62795999Y-86264072D01*
X63696001Y-86264072D01*
X63869255Y-86247008D01*
X64035851Y-86196472D01*
X64189387Y-86114405D01*
X64323962Y-86003962D01*
X64346500Y-85976500D01*
X66671984Y-85976500D01*
X66715038Y-86028962D01*
X66849614Y-86139405D01*
X66992501Y-86215780D01*
X66992500Y-88478449D01*
X66988506Y-88519000D01*
X66992500Y-88559550D01*
X66992500Y-88559552D01*
X67004444Y-88680825D01*
X67039521Y-88796459D01*
X67051647Y-88836433D01*
X67128301Y-88979842D01*
X67147515Y-89003254D01*
X67231459Y-89105541D01*
X67262966Y-89131398D01*
X67373501Y-89241933D01*
X67373500Y-90804998D01*
X67325850Y-90779528D01*
X67159254Y-90728992D01*
X66986000Y-90711928D01*
X66486000Y-90711928D01*
X66312746Y-90728992D01*
X66146150Y-90779528D01*
X65992614Y-90861595D01*
X65858038Y-90972038D01*
X65852658Y-90978594D01*
X65787185Y-90898815D01*
X65690494Y-90819463D01*
X65580180Y-90760498D01*
X65460482Y-90724188D01*
X65336000Y-90711928D01*
X65121750Y-90715000D01*
X64963000Y-90873750D01*
X64963000Y-91948000D01*
X64983000Y-91948000D01*
X64983000Y-92202000D01*
X64963000Y-92202000D01*
X64963000Y-92222000D01*
X64709000Y-92222000D01*
X64709000Y-92202000D01*
X63859750Y-92202000D01*
X63701000Y-92360750D01*
X63697928Y-92800000D01*
X63710188Y-92924482D01*
X63746498Y-93044180D01*
X63805463Y-93154494D01*
X63884815Y-93251185D01*
X63981506Y-93330537D01*
X64091820Y-93389502D01*
X64195655Y-93421000D01*
X56779630Y-93421000D01*
X55753000Y-92394370D01*
X55753000Y-91350000D01*
X63697928Y-91350000D01*
X63701000Y-91789250D01*
X63859750Y-91948000D01*
X64709000Y-91948000D01*
X64709000Y-90873750D01*
X64550250Y-90715000D01*
X64336000Y-90711928D01*
X64211518Y-90724188D01*
X64091820Y-90760498D01*
X63981506Y-90819463D01*
X63884815Y-90898815D01*
X63805463Y-90995506D01*
X63746498Y-91105820D01*
X63710188Y-91225518D01*
X63697928Y-91350000D01*
X55753000Y-91350000D01*
X55753000Y-89215630D01*
X57059102Y-87909529D01*
X57088172Y-87885672D01*
X57128433Y-87836614D01*
X57183395Y-87769643D01*
X57244004Y-87656250D01*
X57254152Y-87637265D01*
X57297724Y-87493628D01*
X57308750Y-87381676D01*
X57308750Y-87381673D01*
X57312436Y-87344250D01*
X57308750Y-87306827D01*
X57308750Y-86944802D01*
X57368351Y-86926722D01*
X57521887Y-86844655D01*
X57656462Y-86734212D01*
X57766905Y-86599637D01*
X57848972Y-86446101D01*
X57899508Y-86279505D01*
X57916572Y-86106251D01*
X57916572Y-85581249D01*
X57899508Y-85407995D01*
X57848972Y-85241399D01*
X57766905Y-85087863D01*
X57656462Y-84953288D01*
X57629609Y-84931250D01*
X57656462Y-84909212D01*
X57766905Y-84774637D01*
X57848972Y-84621101D01*
X57899508Y-84454505D01*
X57916572Y-84281251D01*
X57916572Y-83756249D01*
X57899508Y-83582995D01*
X57848972Y-83416399D01*
X57766905Y-83262863D01*
X57656462Y-83128288D01*
X57521887Y-83017845D01*
X57368351Y-82935778D01*
X57271750Y-82906475D01*
X57271750Y-82841423D01*
X57275436Y-82804000D01*
X57269830Y-82747079D01*
X57260724Y-82654622D01*
X57217152Y-82510985D01*
X57184215Y-82449364D01*
X57146395Y-82378607D01*
X57075029Y-82291648D01*
X57051172Y-82262578D01*
X57022103Y-82238722D01*
X56379440Y-81596060D01*
X56468000Y-81507500D01*
X56468000Y-81502283D01*
X56492185Y-81482435D01*
X56571537Y-81385744D01*
X56630502Y-81275430D01*
X56666812Y-81155732D01*
X56679072Y-81031250D01*
X56679072Y-78781250D01*
X56666812Y-78656768D01*
X56630502Y-78537070D01*
X56571537Y-78426756D01*
X56492185Y-78330065D01*
X56468000Y-78310217D01*
X56468000Y-78305000D01*
X56714000Y-78305000D01*
X56714000Y-79779250D01*
X56738000Y-79779250D01*
X56738000Y-80033250D01*
X56714000Y-80033250D01*
X56714000Y-81507500D01*
X56872750Y-81666250D01*
X56972361Y-81655654D01*
X57091652Y-81618029D01*
X57201311Y-81557854D01*
X57297123Y-81477443D01*
X57375406Y-81379884D01*
X57431123Y-81272828D01*
X57585866Y-81461384D01*
X57811986Y-81646956D01*
X58069966Y-81784849D01*
X58349889Y-81869763D01*
X58641000Y-81898435D01*
X58932110Y-81869763D01*
X59212033Y-81784849D01*
X59470013Y-81646956D01*
X59696134Y-81461384D01*
X59801496Y-81333000D01*
X68994928Y-81333000D01*
X69007188Y-81457482D01*
X69043498Y-81577180D01*
X69102463Y-81687494D01*
X69181815Y-81784185D01*
X69278506Y-81863537D01*
X69388820Y-81922502D01*
X69508518Y-81958812D01*
X69633000Y-81971072D01*
X70072250Y-81968000D01*
X70231000Y-81809250D01*
X70231000Y-80960000D01*
X69156750Y-80960000D01*
X68998000Y-81118750D01*
X68994928Y-81333000D01*
X59801496Y-81333000D01*
X59881706Y-81235264D01*
X60019599Y-80977284D01*
X60104513Y-80697361D01*
X60126000Y-80479200D01*
X60126000Y-79333300D01*
X60104513Y-79115139D01*
X60019599Y-78835216D01*
X59881706Y-78577236D01*
X59696134Y-78351116D01*
X59470014Y-78165544D01*
X59212034Y-78027651D01*
X58932111Y-77942737D01*
X58641000Y-77914065D01*
X58349890Y-77942737D01*
X58069967Y-78027651D01*
X57811987Y-78165544D01*
X57585867Y-78351116D01*
X57431123Y-78539671D01*
X57375406Y-78432616D01*
X57297123Y-78335057D01*
X57201311Y-78254646D01*
X57091652Y-78194471D01*
X56972361Y-78156846D01*
X56872750Y-78146250D01*
X56714000Y-78305000D01*
X56468000Y-78305000D01*
X56309250Y-78146250D01*
X56209639Y-78156846D01*
X56190266Y-78162956D01*
X56165482Y-78155438D01*
X56041000Y-78143178D01*
X55541000Y-78143178D01*
X55416518Y-78155438D01*
X55391000Y-78163179D01*
X55365482Y-78155438D01*
X55241000Y-78143178D01*
X54741000Y-78143178D01*
X54616518Y-78155438D01*
X54591000Y-78163179D01*
X54565482Y-78155438D01*
X54441000Y-78143178D01*
X53941000Y-78143178D01*
X53816518Y-78155438D01*
X53791000Y-78163179D01*
X53765482Y-78155438D01*
X53641000Y-78143178D01*
X53141000Y-78143178D01*
X53016518Y-78155438D01*
X52896820Y-78191748D01*
X52786506Y-78250713D01*
X52689815Y-78330065D01*
X52610463Y-78426756D01*
X52551498Y-78537070D01*
X52550754Y-78539521D01*
X52396134Y-78351116D01*
X52170014Y-78165544D01*
X51912034Y-78027651D01*
X51632111Y-77942737D01*
X51341000Y-77914065D01*
X51049890Y-77942737D01*
X50769967Y-78027651D01*
X50511987Y-78165544D01*
X50285867Y-78351116D01*
X50100294Y-78577236D01*
X49962401Y-78835216D01*
X49877487Y-79115139D01*
X49856000Y-79333300D01*
X49856000Y-80479199D01*
X49877487Y-80697360D01*
X49962401Y-80977283D01*
X50100294Y-81235263D01*
X50285866Y-81461384D01*
X50511986Y-81646956D01*
X50769966Y-81784849D01*
X51049889Y-81869763D01*
X51127418Y-81877399D01*
X48879716Y-84125102D01*
X48848209Y-84150959D01*
X48778964Y-84235335D01*
X48745051Y-84276658D01*
X48686992Y-84385279D01*
X48668397Y-84420067D01*
X48621194Y-84575675D01*
X48609919Y-84690158D01*
X48605256Y-84737500D01*
X48609250Y-84778051D01*
X48609251Y-89437257D01*
X48469900Y-89479528D01*
X48316364Y-89561595D01*
X48181788Y-89672038D01*
X48071345Y-89806614D01*
X47989278Y-89960150D01*
X47938742Y-90126746D01*
X47921678Y-90300000D01*
X47921678Y-91050000D01*
X47938742Y-91223254D01*
X47989278Y-91389850D01*
X48071345Y-91543386D01*
X48181788Y-91677962D01*
X48316364Y-91788405D01*
X48469900Y-91870472D01*
X48636496Y-91921008D01*
X48809750Y-91938072D01*
X50059750Y-91938072D01*
X50233004Y-91921008D01*
X50399600Y-91870472D01*
X50553136Y-91788405D01*
X50687712Y-91677962D01*
X50798155Y-91543386D01*
X50880222Y-91389850D01*
X50930758Y-91223254D01*
X50947822Y-91050000D01*
X50947822Y-90300000D01*
X50930758Y-90126746D01*
X50880222Y-89960150D01*
X50798155Y-89806614D01*
X50687712Y-89672038D01*
X50553136Y-89561595D01*
X50399600Y-89479528D01*
X50260250Y-89437257D01*
X50260250Y-85079432D01*
X51271678Y-84068004D01*
X51271678Y-84281251D01*
X51288742Y-84454505D01*
X51339278Y-84621101D01*
X51421345Y-84774637D01*
X51531788Y-84909212D01*
X51558641Y-84931250D01*
X51531788Y-84953288D01*
X51421345Y-85087863D01*
X51339278Y-85241399D01*
X51288742Y-85407995D01*
X51271678Y-85581249D01*
X51271678Y-86106251D01*
X51288742Y-86279505D01*
X51339278Y-86446101D01*
X51421345Y-86599637D01*
X51531788Y-86734212D01*
X51666363Y-86844655D01*
X51819899Y-86926722D01*
X51847751Y-86935171D01*
X51847751Y-87243317D01*
X51844064Y-87280750D01*
X51858777Y-87430128D01*
X51902349Y-87573765D01*
X51973105Y-87706142D01*
X52030177Y-87775684D01*
X52068329Y-87822172D01*
X52097399Y-87846029D01*
X53467000Y-89215631D01*
X53467001Y-92926567D01*
X53463314Y-92964000D01*
X53478027Y-93113378D01*
X53521599Y-93257015D01*
X53592355Y-93389392D01*
X53663103Y-93475598D01*
X53687579Y-93505422D01*
X53716649Y-93529279D01*
X55119869Y-94932500D01*
X50379933Y-94932500D01*
X50260250Y-94812818D01*
X50260250Y-94712743D01*
X50399600Y-94670472D01*
X50553136Y-94588405D01*
X50687712Y-94477962D01*
X50798155Y-94343386D01*
X50880222Y-94189850D01*
X50930758Y-94023254D01*
X50947822Y-93850000D01*
X50947822Y-93100000D01*
X50930758Y-92926746D01*
X50880222Y-92760150D01*
X50798155Y-92606614D01*
X50687712Y-92472038D01*
X50553136Y-92361595D01*
X50399600Y-92279528D01*
X50233004Y-92228992D01*
X50059750Y-92211928D01*
X48809750Y-92211928D01*
X48636496Y-92228992D01*
X48469900Y-92279528D01*
X48316364Y-92361595D01*
X48181788Y-92472038D01*
X48071345Y-92606614D01*
X47989278Y-92760150D01*
X47938742Y-92926746D01*
X47921678Y-93100000D01*
X47921678Y-93850000D01*
X47938742Y-94023254D01*
X47989278Y-94189850D01*
X48071345Y-94343386D01*
X48181788Y-94477962D01*
X48316364Y-94588405D01*
X48469900Y-94670472D01*
X48609250Y-94712743D01*
X48609250Y-95114199D01*
X48605256Y-95154750D01*
X48609250Y-95195300D01*
X48609250Y-95195302D01*
X48621194Y-95316575D01*
X48666390Y-95465567D01*
X48668397Y-95472183D01*
X48745051Y-95615592D01*
X48778964Y-95656915D01*
X48848209Y-95741291D01*
X48879716Y-95767148D01*
X49425606Y-96313039D01*
X49451459Y-96344541D01*
X49577158Y-96447699D01*
X49720566Y-96524353D01*
X49876174Y-96571556D01*
X49997447Y-96583500D01*
X49997449Y-96583500D01*
X50037999Y-96587494D01*
X50078550Y-96583500D01*
X66460067Y-96583500D01*
X66568106Y-96691539D01*
X66568774Y-96694898D01*
X66611501Y-96798049D01*
X66611500Y-100797449D01*
X66607506Y-100838000D01*
X66611500Y-100878550D01*
X66611500Y-100878552D01*
X66623444Y-100999825D01*
X66650667Y-101089566D01*
X66670647Y-101155433D01*
X66747301Y-101298842D01*
X66781214Y-101340165D01*
X66850459Y-101424541D01*
X66881965Y-101450397D01*
X67713611Y-102282044D01*
X67739459Y-102313541D01*
X67770955Y-102339389D01*
X67770958Y-102339392D01*
X67865157Y-102416699D01*
X68008566Y-102493353D01*
X68164174Y-102540556D01*
X68285447Y-102552500D01*
X68285449Y-102552500D01*
X68326000Y-102556494D01*
X68366550Y-102552500D01*
X68597221Y-102552500D01*
X68673595Y-102695386D01*
X68784038Y-102829962D01*
X68918614Y-102940405D01*
X69072150Y-103022472D01*
X69238746Y-103073008D01*
X69412000Y-103090072D01*
X69912000Y-103090072D01*
X70085254Y-103073008D01*
X70251850Y-103022472D01*
X70405386Y-102940405D01*
X70539962Y-102829962D01*
X70545342Y-102823406D01*
X70610815Y-102903185D01*
X70707506Y-102982537D01*
X70817820Y-103041502D01*
X70937518Y-103077812D01*
X71062000Y-103090072D01*
X71276250Y-103087000D01*
X71435000Y-102928250D01*
X71435000Y-101854000D01*
X71689000Y-101854000D01*
X71689000Y-102928250D01*
X71847750Y-103087000D01*
X72062000Y-103090072D01*
X72186482Y-103077812D01*
X72306180Y-103041502D01*
X72416494Y-102982537D01*
X72513185Y-102903185D01*
X72592537Y-102806494D01*
X72651502Y-102696180D01*
X72687812Y-102576482D01*
X72700072Y-102452000D01*
X78429928Y-102452000D01*
X78442188Y-102576482D01*
X78478498Y-102696180D01*
X78537463Y-102806494D01*
X78616815Y-102903185D01*
X78713506Y-102982537D01*
X78823820Y-103041502D01*
X78943518Y-103077812D01*
X79068000Y-103090072D01*
X79282250Y-103087000D01*
X79441000Y-102928250D01*
X79441000Y-101854000D01*
X78591750Y-101854000D01*
X78433000Y-102012750D01*
X78429928Y-102452000D01*
X72700072Y-102452000D01*
X72697000Y-102012750D01*
X72538250Y-101854000D01*
X71689000Y-101854000D01*
X71435000Y-101854000D01*
X71415000Y-101854000D01*
X71415000Y-101600000D01*
X71435000Y-101600000D01*
X71435000Y-100525750D01*
X71689000Y-100525750D01*
X71689000Y-101600000D01*
X72538250Y-101600000D01*
X72697000Y-101441250D01*
X72700072Y-101002000D01*
X72687812Y-100877518D01*
X72651502Y-100757820D01*
X72592537Y-100647506D01*
X72513185Y-100550815D01*
X72416494Y-100471463D01*
X72306180Y-100412498D01*
X72186482Y-100376188D01*
X72062000Y-100363928D01*
X71847750Y-100367000D01*
X71689000Y-100525750D01*
X71435000Y-100525750D01*
X71276250Y-100367000D01*
X71062000Y-100363928D01*
X70937518Y-100376188D01*
X70817820Y-100412498D01*
X70707506Y-100471463D01*
X70610815Y-100550815D01*
X70545342Y-100630594D01*
X70539962Y-100624038D01*
X70487500Y-100580984D01*
X70487500Y-99970932D01*
X70913201Y-99545232D01*
X70935506Y-99563537D01*
X71045820Y-99622502D01*
X71165518Y-99658812D01*
X71290000Y-99671072D01*
X71840000Y-99671072D01*
X71964482Y-99658812D01*
X71965663Y-99658454D01*
X72079250Y-99668000D01*
X72171333Y-99575917D01*
X72194494Y-99563537D01*
X72291185Y-99484185D01*
X72365000Y-99394241D01*
X72438815Y-99484185D01*
X72535506Y-99563537D01*
X72558667Y-99575917D01*
X72650750Y-99668000D01*
X72764337Y-99658454D01*
X72765518Y-99658812D01*
X72890000Y-99671072D01*
X73440000Y-99671072D01*
X73564482Y-99658812D01*
X73565000Y-99658655D01*
X73565518Y-99658812D01*
X73690000Y-99671072D01*
X74240000Y-99671072D01*
X74364482Y-99658812D01*
X74365000Y-99658655D01*
X74365518Y-99658812D01*
X74490000Y-99671072D01*
X75040000Y-99671072D01*
X75164482Y-99658812D01*
X75165000Y-99658655D01*
X75165518Y-99658812D01*
X75290000Y-99671072D01*
X75840000Y-99671072D01*
X75964482Y-99658812D01*
X75965000Y-99658655D01*
X75965518Y-99658812D01*
X76090000Y-99671072D01*
X76640000Y-99671072D01*
X76764482Y-99658812D01*
X76765000Y-99658655D01*
X76765518Y-99658812D01*
X76890000Y-99671072D01*
X77440000Y-99671072D01*
X77564482Y-99658812D01*
X77565000Y-99658655D01*
X77565518Y-99658812D01*
X77690000Y-99671072D01*
X78240000Y-99671072D01*
X78364482Y-99658812D01*
X78365663Y-99658454D01*
X78479250Y-99668000D01*
X78571333Y-99575917D01*
X78594494Y-99563537D01*
X78637998Y-99527834D01*
X78637998Y-99668000D01*
X78752104Y-99668000D01*
X78789363Y-99790826D01*
X78798647Y-99821433D01*
X78875301Y-99964842D01*
X78894319Y-99988015D01*
X78978459Y-100090541D01*
X79009966Y-100116398D01*
X79260252Y-100366685D01*
X79068000Y-100363928D01*
X78943518Y-100376188D01*
X78823820Y-100412498D01*
X78713506Y-100471463D01*
X78616815Y-100550815D01*
X78537463Y-100647506D01*
X78478498Y-100757820D01*
X78442188Y-100877518D01*
X78429928Y-101002000D01*
X78433000Y-101441250D01*
X78591750Y-101600000D01*
X79441000Y-101600000D01*
X79441000Y-101580000D01*
X79695000Y-101580000D01*
X79695000Y-101600000D01*
X79715000Y-101600000D01*
X79715000Y-101854000D01*
X79695000Y-101854000D01*
X79695000Y-102928250D01*
X79853750Y-103087000D01*
X80068000Y-103090072D01*
X80192482Y-103077812D01*
X80312180Y-103041502D01*
X80422494Y-102982537D01*
X80519185Y-102903185D01*
X80584658Y-102823406D01*
X80590038Y-102829962D01*
X80724614Y-102940405D01*
X80878150Y-103022472D01*
X81044746Y-103073008D01*
X81218000Y-103090072D01*
X81718000Y-103090072D01*
X81891254Y-103073008D01*
X82057850Y-103022472D01*
X82211386Y-102940405D01*
X82345962Y-102829962D01*
X82456405Y-102695386D01*
X82532779Y-102552500D01*
X83192497Y-102552500D01*
X83329744Y-102644205D01*
X83518102Y-102722226D01*
X83718061Y-102762000D01*
X83921939Y-102762000D01*
X84121898Y-102722226D01*
X84310256Y-102644205D01*
X84479774Y-102530937D01*
X84623937Y-102386774D01*
X84737205Y-102217256D01*
X84815226Y-102028898D01*
X84855000Y-101828939D01*
X84855000Y-101625061D01*
X84815226Y-101425102D01*
X84737205Y-101236744D01*
X84623937Y-101067226D01*
X84479774Y-100923063D01*
X84310256Y-100809795D01*
X84121898Y-100731774D01*
X83921939Y-100692000D01*
X83718061Y-100692000D01*
X83518102Y-100731774D01*
X83329744Y-100809795D01*
X83192497Y-100901500D01*
X82532779Y-100901500D01*
X82456405Y-100758614D01*
X82345962Y-100624038D01*
X82211386Y-100513595D01*
X82057850Y-100431528D01*
X81891254Y-100380992D01*
X81718000Y-100363928D01*
X81592361Y-100363928D01*
X80447216Y-99218784D01*
X80448363Y-99215000D01*
X83370928Y-99215000D01*
X83383188Y-99339482D01*
X83419498Y-99459180D01*
X83478463Y-99569494D01*
X83557815Y-99666185D01*
X83654506Y-99745537D01*
X83764820Y-99804502D01*
X83884518Y-99840812D01*
X84009000Y-99853072D01*
X84423250Y-99850000D01*
X84582000Y-99691250D01*
X84582000Y-98829500D01*
X83532750Y-98829500D01*
X83374000Y-98988250D01*
X83370928Y-99215000D01*
X80448363Y-99215000D01*
X80465812Y-99157482D01*
X80478072Y-99033000D01*
X80478072Y-97533000D01*
X80474038Y-97492038D01*
X80515000Y-97496072D01*
X82015000Y-97496072D01*
X82139482Y-97483812D01*
X82259180Y-97447502D01*
X82369494Y-97388537D01*
X82422544Y-97345000D01*
X82678370Y-97345000D01*
X82723216Y-97389846D01*
X82747078Y-97418922D01*
X82863108Y-97514145D01*
X82995485Y-97584902D01*
X83139122Y-97628474D01*
X83251074Y-97639500D01*
X83251077Y-97639500D01*
X83288500Y-97643186D01*
X83325923Y-97639500D01*
X83525612Y-97639500D01*
X83587276Y-97714637D01*
X83557815Y-97738815D01*
X83478463Y-97835506D01*
X83419498Y-97945820D01*
X83383188Y-98065518D01*
X83370928Y-98190000D01*
X83374000Y-98416750D01*
X83532750Y-98575500D01*
X84582000Y-98575500D01*
X84582000Y-98555500D01*
X84836000Y-98555500D01*
X84836000Y-98575500D01*
X84856000Y-98575500D01*
X84856000Y-98829500D01*
X84836000Y-98829500D01*
X84836000Y-99691250D01*
X84994750Y-99850000D01*
X85409000Y-99853072D01*
X85533482Y-99840812D01*
X85598000Y-99821241D01*
X85598000Y-110998000D01*
X47752000Y-110998000D01*
X47752000Y-107968750D01*
X47971678Y-107968750D01*
X47983938Y-108093232D01*
X48020248Y-108212930D01*
X48079213Y-108323244D01*
X48158565Y-108419935D01*
X48255256Y-108499287D01*
X48365570Y-108558252D01*
X48485268Y-108594562D01*
X48609750Y-108606822D01*
X49224000Y-108603750D01*
X49382750Y-108445000D01*
X49382750Y-107545750D01*
X49636750Y-107545750D01*
X49636750Y-108445000D01*
X49795500Y-108603750D01*
X50409750Y-108606822D01*
X50534232Y-108594562D01*
X50653930Y-108558252D01*
X50764244Y-108499287D01*
X50860935Y-108419935D01*
X50940287Y-108323244D01*
X50999252Y-108212930D01*
X51035562Y-108093232D01*
X51047822Y-107968750D01*
X51044750Y-107704500D01*
X50886000Y-107545750D01*
X49636750Y-107545750D01*
X49382750Y-107545750D01*
X48133500Y-107545750D01*
X47974750Y-107704500D01*
X47971678Y-107968750D01*
X47752000Y-107968750D01*
X47752000Y-106868750D01*
X47971678Y-106868750D01*
X47974750Y-107133000D01*
X48133500Y-107291750D01*
X49382750Y-107291750D01*
X49382750Y-106392500D01*
X49636750Y-106392500D01*
X49636750Y-107291750D01*
X50886000Y-107291750D01*
X51044750Y-107133000D01*
X51047822Y-106868750D01*
X54171678Y-106868750D01*
X54171678Y-107968750D01*
X54183938Y-108093232D01*
X54220248Y-108212930D01*
X54279213Y-108323244D01*
X54358565Y-108419935D01*
X54455256Y-108499287D01*
X54565570Y-108558252D01*
X54685268Y-108594562D01*
X54809750Y-108606822D01*
X56609750Y-108606822D01*
X56734232Y-108594562D01*
X56853930Y-108558252D01*
X56964244Y-108499287D01*
X57060935Y-108419935D01*
X57140287Y-108323244D01*
X57199252Y-108212930D01*
X57235562Y-108093232D01*
X57247822Y-107968750D01*
X57247822Y-106868750D01*
X57235562Y-106744268D01*
X57199252Y-106624570D01*
X57140287Y-106514256D01*
X57060935Y-106417565D01*
X56964244Y-106338213D01*
X56853930Y-106279248D01*
X56734232Y-106242938D01*
X56609750Y-106230678D01*
X54809750Y-106230678D01*
X54685268Y-106242938D01*
X54565570Y-106279248D01*
X54455256Y-106338213D01*
X54358565Y-106417565D01*
X54279213Y-106514256D01*
X54220248Y-106624570D01*
X54183938Y-106744268D01*
X54171678Y-106868750D01*
X51047822Y-106868750D01*
X51035562Y-106744268D01*
X50999252Y-106624570D01*
X50940287Y-106514256D01*
X50860935Y-106417565D01*
X50764244Y-106338213D01*
X50653930Y-106279248D01*
X50534232Y-106242938D01*
X50409750Y-106230678D01*
X49795500Y-106233750D01*
X49636750Y-106392500D01*
X49382750Y-106392500D01*
X49224000Y-106233750D01*
X48609750Y-106230678D01*
X48485268Y-106242938D01*
X48365570Y-106279248D01*
X48255256Y-106338213D01*
X48158565Y-106417565D01*
X48079213Y-106514256D01*
X48020248Y-106624570D01*
X47983938Y-106744268D01*
X47971678Y-106868750D01*
X47752000Y-106868750D01*
X47752000Y-103168750D01*
X47971678Y-103168750D01*
X47971678Y-104268750D01*
X47983938Y-104393232D01*
X48020248Y-104512930D01*
X48079213Y-104623244D01*
X48158565Y-104719935D01*
X48255256Y-104799287D01*
X48365570Y-104858252D01*
X48485268Y-104894562D01*
X48609750Y-104906822D01*
X50409750Y-104906822D01*
X50534232Y-104894562D01*
X50653930Y-104858252D01*
X50764244Y-104799287D01*
X50860935Y-104719935D01*
X50940287Y-104623244D01*
X50999252Y-104512930D01*
X51035562Y-104393232D01*
X51047822Y-104268750D01*
X51047822Y-103168750D01*
X54171678Y-103168750D01*
X54171678Y-104268750D01*
X54183938Y-104393232D01*
X54220248Y-104512930D01*
X54279213Y-104623244D01*
X54358565Y-104719935D01*
X54455256Y-104799287D01*
X54565570Y-104858252D01*
X54685268Y-104894562D01*
X54809750Y-104906822D01*
X56609750Y-104906822D01*
X56734232Y-104894562D01*
X56853930Y-104858252D01*
X56964244Y-104799287D01*
X57060935Y-104719935D01*
X57140287Y-104623244D01*
X57154644Y-104596384D01*
X57229102Y-104627226D01*
X57429061Y-104667000D01*
X57632939Y-104667000D01*
X57832898Y-104627226D01*
X58021256Y-104549205D01*
X58190774Y-104435937D01*
X58334937Y-104291774D01*
X58448205Y-104122256D01*
X58526226Y-103933898D01*
X58566000Y-103733939D01*
X58566000Y-103530061D01*
X58526226Y-103330102D01*
X58448205Y-103141744D01*
X58334937Y-102972226D01*
X58190774Y-102828063D01*
X58021256Y-102714795D01*
X57832898Y-102636774D01*
X57632939Y-102597000D01*
X57429061Y-102597000D01*
X57229102Y-102636774D01*
X57051919Y-102710166D01*
X56964244Y-102638213D01*
X56853930Y-102579248D01*
X56734232Y-102542938D01*
X56609750Y-102530678D01*
X54809750Y-102530678D01*
X54685268Y-102542938D01*
X54565570Y-102579248D01*
X54455256Y-102638213D01*
X54358565Y-102717565D01*
X54279213Y-102814256D01*
X54220248Y-102924570D01*
X54183938Y-103044268D01*
X54171678Y-103168750D01*
X51047822Y-103168750D01*
X51035562Y-103044268D01*
X50999252Y-102924570D01*
X50940287Y-102814256D01*
X50860935Y-102717565D01*
X50764244Y-102638213D01*
X50653930Y-102579248D01*
X50534232Y-102542938D01*
X50409750Y-102530678D01*
X48609750Y-102530678D01*
X48485268Y-102542938D01*
X48365570Y-102579248D01*
X48255256Y-102638213D01*
X48158565Y-102717565D01*
X48079213Y-102814256D01*
X48020248Y-102924570D01*
X47983938Y-103044268D01*
X47971678Y-103168750D01*
X47752000Y-103168750D01*
X47752000Y-74401930D01*
X47882614Y-74361498D01*
X48277443Y-74320000D01*
X49970534Y-74320000D01*
X49962401Y-74335216D01*
%TA.AperFunction,Conductor*%
D23*
G36*
X49962401Y-74335216D02*
G01*
X49877487Y-74615139D01*
X49856000Y-74833300D01*
X49856000Y-75979199D01*
X49877487Y-76197360D01*
X49962401Y-76477283D01*
X50100294Y-76735263D01*
X50285866Y-76961384D01*
X50511986Y-77146956D01*
X50769966Y-77284849D01*
X51049889Y-77369763D01*
X51341000Y-77398435D01*
X51632110Y-77369763D01*
X51912033Y-77284849D01*
X52170013Y-77146956D01*
X52396134Y-76961384D01*
X52581706Y-76735264D01*
X52719599Y-76477284D01*
X52804513Y-76197361D01*
X52826000Y-75979200D01*
X52826000Y-74833300D01*
X52804513Y-74615139D01*
X52719599Y-74335216D01*
X52711466Y-74320000D01*
X57270534Y-74320000D01*
X57262401Y-74335216D01*
X57177487Y-74615139D01*
X57156000Y-74833300D01*
X57156000Y-75979199D01*
X57177487Y-76197360D01*
X57262401Y-76477283D01*
X57400294Y-76735263D01*
X57585866Y-76961384D01*
X57811986Y-77146956D01*
X58069966Y-77284849D01*
X58349889Y-77369763D01*
X58641000Y-77398435D01*
X58932110Y-77369763D01*
X59212033Y-77284849D01*
X59470013Y-77146956D01*
X59696134Y-76961384D01*
X59881706Y-76735264D01*
X60019599Y-76477284D01*
X60104513Y-76197361D01*
X60126000Y-75979200D01*
X60126000Y-74833300D01*
X60104513Y-74615139D01*
X60019599Y-74335216D01*
X60011466Y-74320000D01*
X85598000Y-74320000D01*
X85598000Y-85566176D01*
X85558482Y-85554188D01*
X85434000Y-85541928D01*
X84994750Y-85545000D01*
X84836000Y-85703750D01*
X84836000Y-86553000D01*
X84856000Y-86553000D01*
X84856000Y-86807000D01*
X84836000Y-86807000D01*
X84836000Y-86827000D01*
X84582000Y-86827000D01*
X84582000Y-86807000D01*
X83507750Y-86807000D01*
X83349000Y-86965750D01*
X83345928Y-87180000D01*
X83358188Y-87304482D01*
X83394498Y-87424180D01*
X83453463Y-87534494D01*
X83532815Y-87631185D01*
X83612594Y-87696658D01*
X83606038Y-87702038D01*
X83495595Y-87836614D01*
X83413528Y-87990150D01*
X83362992Y-88156746D01*
X83345928Y-88330000D01*
X83345928Y-88557500D01*
X82650000Y-88557500D01*
X82650000Y-88455998D01*
X82491252Y-88455998D01*
X82650000Y-88297250D01*
X82640177Y-88180369D01*
X82603265Y-88060855D01*
X82543746Y-87950839D01*
X82463908Y-87854549D01*
X82366818Y-87775684D01*
X82256208Y-87717276D01*
X82136329Y-87681570D01*
X82011787Y-87669936D01*
X81550750Y-87673000D01*
X81392000Y-87831750D01*
X81392000Y-88456000D01*
X81412000Y-88456000D01*
X81412000Y-88469928D01*
X80515000Y-88469928D01*
X80390518Y-88482188D01*
X80270820Y-88518498D01*
X80160506Y-88577463D01*
X80063815Y-88656815D01*
X79984463Y-88753506D01*
X79972083Y-88776667D01*
X79880000Y-88868750D01*
X79889546Y-88982337D01*
X79889188Y-88983518D01*
X79876928Y-89108000D01*
X79876928Y-89658000D01*
X79889188Y-89782482D01*
X79889345Y-89783000D01*
X79889188Y-89783518D01*
X79876928Y-89908000D01*
X79876928Y-90458000D01*
X79889188Y-90582482D01*
X79889345Y-90583000D01*
X79889188Y-90583518D01*
X79876928Y-90708000D01*
X79876928Y-91258000D01*
X79889188Y-91382482D01*
X79889345Y-91383000D01*
X79889188Y-91383518D01*
X79876928Y-91508000D01*
X79876928Y-92058000D01*
X79889188Y-92182482D01*
X79889345Y-92183000D01*
X79889188Y-92183518D01*
X79876928Y-92308000D01*
X79876928Y-92858000D01*
X79889188Y-92982482D01*
X79889345Y-92983000D01*
X79889188Y-92983518D01*
X79876928Y-93108000D01*
X79876928Y-93658000D01*
X79889188Y-93782482D01*
X79889345Y-93783000D01*
X79889188Y-93783518D01*
X79876928Y-93908000D01*
X79876928Y-94458000D01*
X79889188Y-94582482D01*
X79889345Y-94583000D01*
X79889188Y-94583518D01*
X79876928Y-94708000D01*
X79876928Y-95258000D01*
X79889188Y-95382482D01*
X79889345Y-95383000D01*
X79889188Y-95383518D01*
X79876928Y-95508000D01*
X79876928Y-96058000D01*
X79889188Y-96182482D01*
X79889345Y-96183000D01*
X79889188Y-96183518D01*
X79876928Y-96308000D01*
X79876928Y-96858000D01*
X79880962Y-96898962D01*
X79840000Y-96894928D01*
X79290000Y-96894928D01*
X79165518Y-96907188D01*
X79164337Y-96907546D01*
X79050750Y-96898000D01*
X78958667Y-96990083D01*
X78935506Y-97002463D01*
X78838815Y-97081815D01*
X78765000Y-97171759D01*
X78691185Y-97081815D01*
X78594494Y-97002463D01*
X78571333Y-96990083D01*
X78479250Y-96898000D01*
X78365663Y-96907546D01*
X78364482Y-96907188D01*
X78240000Y-96894928D01*
X77690000Y-96894928D01*
X77565518Y-96907188D01*
X77565000Y-96907345D01*
X77564482Y-96907188D01*
X77440000Y-96894928D01*
X76890000Y-96894928D01*
X76765518Y-96907188D01*
X76765000Y-96907345D01*
X76764482Y-96907188D01*
X76640000Y-96894928D01*
X76090000Y-96894928D01*
X75965518Y-96907188D01*
X75965000Y-96907345D01*
X75964482Y-96907188D01*
X75840000Y-96894928D01*
X75290000Y-96894928D01*
X75165518Y-96907188D01*
X75165000Y-96907345D01*
X75164482Y-96907188D01*
X75040000Y-96894928D01*
X74490000Y-96894928D01*
X74365518Y-96907188D01*
X74365000Y-96907345D01*
X74364482Y-96907188D01*
X74240000Y-96894928D01*
X73690000Y-96894928D01*
X73565518Y-96907188D01*
X73565000Y-96907345D01*
X73564482Y-96907188D01*
X73440000Y-96894928D01*
X72890000Y-96894928D01*
X72765518Y-96907188D01*
X72764337Y-96907546D01*
X72650750Y-96898000D01*
X72558667Y-96990083D01*
X72535506Y-97002463D01*
X72438815Y-97081815D01*
X72365000Y-97171759D01*
X72291185Y-97081815D01*
X72194494Y-97002463D01*
X72171333Y-96990083D01*
X72079250Y-96898000D01*
X71965663Y-96907546D01*
X71964482Y-96907188D01*
X71840000Y-96894928D01*
X71290000Y-96894928D01*
X71249038Y-96898962D01*
X71253072Y-96858000D01*
X71253072Y-96308000D01*
X71240812Y-96183518D01*
X71240655Y-96183000D01*
X71240812Y-96182482D01*
X71253072Y-96058000D01*
X71253072Y-95508000D01*
X71240812Y-95383518D01*
X71240655Y-95383000D01*
X71240812Y-95382482D01*
X71253072Y-95258000D01*
X71253072Y-94708000D01*
X71240812Y-94583518D01*
X71240655Y-94583000D01*
X71240812Y-94582482D01*
X71253072Y-94458000D01*
X71253072Y-93908000D01*
X71240812Y-93783518D01*
X71240454Y-93782337D01*
X71250000Y-93668750D01*
X71157917Y-93576667D01*
X71145537Y-93553506D01*
X71066185Y-93456815D01*
X70976241Y-93383000D01*
X71066185Y-93309185D01*
X71145537Y-93212494D01*
X71157917Y-93189333D01*
X71250000Y-93097250D01*
X71240454Y-92983663D01*
X71240812Y-92982482D01*
X71253072Y-92858000D01*
X71253072Y-92308000D01*
X71240812Y-92183518D01*
X71240655Y-92183000D01*
X71240812Y-92182482D01*
X71253072Y-92058000D01*
X71253072Y-91508000D01*
X71240812Y-91383518D01*
X71240655Y-91383000D01*
X71240812Y-91382482D01*
X71253072Y-91258000D01*
X71253072Y-90708000D01*
X71240812Y-90583518D01*
X71240655Y-90583000D01*
X71240812Y-90582482D01*
X71253072Y-90458000D01*
X71253072Y-89908000D01*
X71240812Y-89783518D01*
X71240655Y-89783000D01*
X71240812Y-89782482D01*
X71253072Y-89658000D01*
X71253072Y-89108000D01*
X71240812Y-88983518D01*
X71240655Y-88983000D01*
X71240812Y-88982482D01*
X71253072Y-88858000D01*
X71253072Y-88308000D01*
X71249038Y-88267038D01*
X71290000Y-88271072D01*
X71840000Y-88271072D01*
X71964482Y-88258812D01*
X71965000Y-88258655D01*
X71965518Y-88258812D01*
X72090000Y-88271072D01*
X72640000Y-88271072D01*
X72764482Y-88258812D01*
X72765000Y-88258655D01*
X72765518Y-88258812D01*
X72890000Y-88271072D01*
X73440000Y-88271072D01*
X73564482Y-88258812D01*
X73565663Y-88258454D01*
X73679250Y-88268000D01*
X73771333Y-88175917D01*
X73794494Y-88163537D01*
X73891185Y-88084185D01*
X73965000Y-87994241D01*
X74038815Y-88084185D01*
X74135506Y-88163537D01*
X74158667Y-88175917D01*
X74250750Y-88268000D01*
X74364337Y-88258454D01*
X74365518Y-88258812D01*
X74490000Y-88271072D01*
X75040000Y-88271072D01*
X75164482Y-88258812D01*
X75165000Y-88258655D01*
X75165518Y-88258812D01*
X75290000Y-88271072D01*
X75840000Y-88271072D01*
X75964482Y-88258812D01*
X75965000Y-88258655D01*
X75965518Y-88258812D01*
X76090000Y-88271072D01*
X76640000Y-88271072D01*
X76764482Y-88258812D01*
X76765000Y-88258655D01*
X76765518Y-88258812D01*
X76890000Y-88271072D01*
X77440000Y-88271072D01*
X77564482Y-88258812D01*
X77565000Y-88258655D01*
X77565518Y-88258812D01*
X77690000Y-88271072D01*
X78240000Y-88271072D01*
X78364482Y-88258812D01*
X78365000Y-88258655D01*
X78365518Y-88258812D01*
X78490000Y-88271072D01*
X79040000Y-88271072D01*
X79164482Y-88258812D01*
X79165000Y-88258655D01*
X79165518Y-88258812D01*
X79290000Y-88271072D01*
X79840000Y-88271072D01*
X79882552Y-88266881D01*
X79880000Y-88297250D01*
X80038750Y-88456000D01*
X81138000Y-88456000D01*
X81138000Y-87831750D01*
X80979250Y-87673000D01*
X80518213Y-87669936D01*
X80474028Y-87674064D01*
X80478072Y-87633000D01*
X80478072Y-86180000D01*
X83345928Y-86180000D01*
X83349000Y-86394250D01*
X83507750Y-86553000D01*
X84582000Y-86553000D01*
X84582000Y-85703750D01*
X84423250Y-85545000D01*
X83984000Y-85541928D01*
X83859518Y-85554188D01*
X83739820Y-85590498D01*
X83629506Y-85649463D01*
X83532815Y-85728815D01*
X83453463Y-85825506D01*
X83394498Y-85935820D01*
X83358188Y-86055518D01*
X83345928Y-86180000D01*
X80478072Y-86180000D01*
X80478072Y-86133000D01*
X80465812Y-86008518D01*
X80429502Y-85888820D01*
X80370537Y-85778506D01*
X80291185Y-85681815D01*
X80194494Y-85602463D01*
X80084180Y-85543498D01*
X79964482Y-85507188D01*
X79840000Y-85494928D01*
X79290000Y-85494928D01*
X79165518Y-85507188D01*
X79165000Y-85507345D01*
X79164482Y-85507188D01*
X79040000Y-85494928D01*
X78490000Y-85494928D01*
X78365518Y-85507188D01*
X78365000Y-85507345D01*
X78364482Y-85507188D01*
X78240000Y-85494928D01*
X77690000Y-85494928D01*
X77565518Y-85507188D01*
X77565000Y-85507345D01*
X77564482Y-85507188D01*
X77440000Y-85494928D01*
X76890000Y-85494928D01*
X76765518Y-85507188D01*
X76765000Y-85507345D01*
X76764482Y-85507188D01*
X76640000Y-85494928D01*
X76487503Y-85494928D01*
X76539645Y-85431392D01*
X76610402Y-85299015D01*
X76653974Y-85155378D01*
X76665000Y-85043426D01*
X76665000Y-85043424D01*
X76668686Y-85006001D01*
X76665000Y-84968578D01*
X76665000Y-81964966D01*
X76727482Y-81958812D01*
X76847180Y-81922502D01*
X76957494Y-81863537D01*
X77054185Y-81784185D01*
X77133537Y-81687494D01*
X77192502Y-81577180D01*
X77217431Y-81495000D01*
X77991093Y-81495000D01*
X78034595Y-81576386D01*
X78145038Y-81710962D01*
X78279614Y-81821405D01*
X78433150Y-81903472D01*
X78599746Y-81954008D01*
X78773000Y-81971072D01*
X79723000Y-81971072D01*
X79896254Y-81954008D01*
X80062850Y-81903472D01*
X80216386Y-81821405D01*
X80350962Y-81710962D01*
X80461405Y-81576386D01*
X80543472Y-81422850D01*
X80594008Y-81256254D01*
X80611072Y-81083000D01*
X80611072Y-80583000D01*
X80594008Y-80409746D01*
X80543472Y-80243150D01*
X80461405Y-80089614D01*
X80350962Y-79955038D01*
X80344406Y-79949658D01*
X80424185Y-79884185D01*
X80503537Y-79787494D01*
X80562502Y-79677180D01*
X80598812Y-79557482D01*
X80611072Y-79433000D01*
X80608000Y-79218750D01*
X80449250Y-79060000D01*
X79375000Y-79060000D01*
X79375000Y-79080000D01*
X79121000Y-79080000D01*
X79121000Y-79060000D01*
X78046750Y-79060000D01*
X77888000Y-79218750D01*
X77884928Y-79433000D01*
X77897188Y-79557482D01*
X77933498Y-79677180D01*
X77992463Y-79787494D01*
X78071815Y-79884185D01*
X78151594Y-79949658D01*
X78145038Y-79955038D01*
X78131938Y-79971000D01*
X77217431Y-79971000D01*
X77192502Y-79888820D01*
X77189391Y-79883000D01*
X77192502Y-79877180D01*
X77228812Y-79757482D01*
X77241072Y-79633000D01*
X77238000Y-79318750D01*
X77079250Y-79160000D01*
X76030000Y-79160000D01*
X76030000Y-79180000D01*
X75776000Y-79180000D01*
X75776000Y-79160000D01*
X75756000Y-79160000D01*
X75756000Y-78906000D01*
X75776000Y-78906000D01*
X75776000Y-77956750D01*
X76030000Y-77956750D01*
X76030000Y-78906000D01*
X77079250Y-78906000D01*
X77238000Y-78747250D01*
X77241072Y-78433000D01*
X77884928Y-78433000D01*
X77888000Y-78647250D01*
X78046750Y-78806000D01*
X79121000Y-78806000D01*
X79121000Y-77956750D01*
X79375000Y-77956750D01*
X79375000Y-78806000D01*
X80449250Y-78806000D01*
X80608000Y-78647250D01*
X80611072Y-78433000D01*
X80598812Y-78308518D01*
X80562502Y-78188820D01*
X80503537Y-78078506D01*
X80424185Y-77981815D01*
X80327494Y-77902463D01*
X80217180Y-77843498D01*
X80097482Y-77807188D01*
X79973000Y-77794928D01*
X79533750Y-77798000D01*
X79375000Y-77956750D01*
X79121000Y-77956750D01*
X78962250Y-77798000D01*
X78523000Y-77794928D01*
X78398518Y-77807188D01*
X78278820Y-77843498D01*
X78168506Y-77902463D01*
X78071815Y-77981815D01*
X77992463Y-78078506D01*
X77933498Y-78188820D01*
X77897188Y-78308518D01*
X77884928Y-78433000D01*
X77241072Y-78433000D01*
X77228812Y-78308518D01*
X77192502Y-78188820D01*
X77133537Y-78078506D01*
X77054185Y-77981815D01*
X76957494Y-77902463D01*
X76847180Y-77843498D01*
X76727482Y-77807188D01*
X76603000Y-77794928D01*
X76188750Y-77798000D01*
X76030000Y-77956750D01*
X75776000Y-77956750D01*
X75617250Y-77798000D01*
X75203000Y-77794928D01*
X75078518Y-77807188D01*
X74958820Y-77843498D01*
X74848506Y-77902463D01*
X74803000Y-77939809D01*
X74757494Y-77902463D01*
X74647180Y-77843498D01*
X74527482Y-77807188D01*
X74403000Y-77794928D01*
X73003000Y-77794928D01*
X72878518Y-77807188D01*
X72758820Y-77843498D01*
X72648506Y-77902463D01*
X72551815Y-77981815D01*
X72472463Y-78078506D01*
X72413498Y-78188820D01*
X72388569Y-78271000D01*
X71614907Y-78271000D01*
X71571405Y-78189614D01*
X71460962Y-78055038D01*
X71326386Y-77944595D01*
X71172850Y-77862528D01*
X71006254Y-77811992D01*
X70833000Y-77794928D01*
X69883000Y-77794928D01*
X69709746Y-77811992D01*
X69543150Y-77862528D01*
X69389614Y-77944595D01*
X69255038Y-78055038D01*
X69144595Y-78189614D01*
X69062528Y-78343150D01*
X69011992Y-78509746D01*
X68994928Y-78683000D01*
X68994928Y-79183000D01*
X69011992Y-79356254D01*
X69062528Y-79522850D01*
X69144595Y-79676386D01*
X69255038Y-79810962D01*
X69261594Y-79816342D01*
X69181815Y-79881815D01*
X69102463Y-79978506D01*
X69043498Y-80088820D01*
X69007188Y-80208518D01*
X68994928Y-80333000D01*
X68998000Y-80547250D01*
X69156750Y-80706000D01*
X70231000Y-80706000D01*
X70231000Y-80686000D01*
X70485000Y-80686000D01*
X70485000Y-80706000D01*
X70505000Y-80706000D01*
X70505000Y-80960000D01*
X70485000Y-80960000D01*
X70485000Y-81809250D01*
X70643750Y-81968000D01*
X71083000Y-81971072D01*
X71207482Y-81958812D01*
X71327180Y-81922502D01*
X71374000Y-81897476D01*
X71374000Y-82639576D01*
X71370314Y-82677000D01*
X71374000Y-82714423D01*
X71374000Y-82714425D01*
X71385026Y-82826377D01*
X71428598Y-82970014D01*
X71428599Y-82970015D01*
X71499355Y-83102392D01*
X71529499Y-83139122D01*
X71594578Y-83218422D01*
X71623654Y-83242284D01*
X72219219Y-83837849D01*
X72105724Y-83826671D01*
X72105721Y-83826671D01*
X72065171Y-83822677D01*
X72024621Y-83826671D01*
X69173619Y-83826671D01*
X69181072Y-83751000D01*
X69178000Y-83536750D01*
X69019250Y-83378000D01*
X67945000Y-83378000D01*
X67945000Y-83398000D01*
X67691000Y-83398000D01*
X67691000Y-83378000D01*
X67671000Y-83378000D01*
X67671000Y-83124000D01*
X67691000Y-83124000D01*
X67691000Y-82274750D01*
X67945000Y-82274750D01*
X67945000Y-83124000D01*
X69019250Y-83124000D01*
X69178000Y-82965250D01*
X69181072Y-82751000D01*
X69168812Y-82626518D01*
X69132502Y-82506820D01*
X69073537Y-82396506D01*
X68994185Y-82299815D01*
X68897494Y-82220463D01*
X68787180Y-82161498D01*
X68667482Y-82125188D01*
X68543000Y-82112928D01*
X68103750Y-82116000D01*
X67945000Y-82274750D01*
X67691000Y-82274750D01*
X67532250Y-82116000D01*
X67093000Y-82112928D01*
X66968518Y-82125188D01*
X66848820Y-82161498D01*
X66738506Y-82220463D01*
X66641815Y-82299815D01*
X66562463Y-82396506D01*
X66503498Y-82506820D01*
X66467188Y-82626518D01*
X66454928Y-82751000D01*
X66458000Y-82965250D01*
X66616748Y-83123998D01*
X66458000Y-83123998D01*
X66458000Y-83155289D01*
X66318774Y-83016063D01*
X66149256Y-82902795D01*
X65960898Y-82824774D01*
X65760939Y-82785000D01*
X65701630Y-82785000D01*
X65692784Y-82776154D01*
X65668922Y-82747078D01*
X65552892Y-82651855D01*
X65420515Y-82581098D01*
X65276878Y-82537526D01*
X65164926Y-82526500D01*
X65164923Y-82526500D01*
X65127500Y-82522814D01*
X65090077Y-82526500D01*
X64429388Y-82526500D01*
X64323962Y-82398038D01*
X64189387Y-82287595D01*
X64035851Y-82205528D01*
X63869255Y-82154992D01*
X63696001Y-82137928D01*
X62795999Y-82137928D01*
X62622745Y-82154992D01*
X62456149Y-82205528D01*
X62302613Y-82287595D01*
X62168038Y-82398038D01*
X62062612Y-82526500D01*
X61782923Y-82526500D01*
X61745500Y-82522814D01*
X61708077Y-82526500D01*
X61708074Y-82526500D01*
X61596122Y-82537526D01*
X61452485Y-82581098D01*
X61390864Y-82614035D01*
X61320107Y-82651855D01*
X61278320Y-82686149D01*
X61204078Y-82747078D01*
X61180216Y-82776154D01*
X61171370Y-82785000D01*
X61112061Y-82785000D01*
X60912102Y-82824774D01*
X60723744Y-82902795D01*
X60554226Y-83016063D01*
X60410063Y-83160226D01*
X60296795Y-83329744D01*
X60218774Y-83518102D01*
X60179000Y-83718061D01*
X60179000Y-83921939D01*
X60218774Y-84121898D01*
X60296795Y-84310256D01*
X60410063Y-84479774D01*
X60554226Y-84623937D01*
X60723744Y-84737205D01*
X60912102Y-84815226D01*
X61112061Y-84855000D01*
X61315939Y-84855000D01*
X61515898Y-84815226D01*
X61704256Y-84737205D01*
X61873774Y-84623937D01*
X61970723Y-84526988D01*
X61924992Y-84677745D01*
X61907928Y-84850999D01*
X61907928Y-85376001D01*
X61924992Y-85549255D01*
X61975528Y-85715851D01*
X62057595Y-85869387D01*
X62168038Y-86003962D01*
X62302613Y-86114405D01*
X62456149Y-86196472D01*
X62622745Y-86247008D01*
X62795999Y-86264072D01*
X63696001Y-86264072D01*
X63869255Y-86247008D01*
X64035851Y-86196472D01*
X64189387Y-86114405D01*
X64323962Y-86003962D01*
X64346500Y-85976500D01*
X66671984Y-85976500D01*
X66715038Y-86028962D01*
X66849614Y-86139405D01*
X66992501Y-86215780D01*
X66992500Y-88478449D01*
X66988506Y-88519000D01*
X66992500Y-88559550D01*
X66992500Y-88559552D01*
X67004444Y-88680825D01*
X67039521Y-88796459D01*
X67051647Y-88836433D01*
X67128301Y-88979842D01*
X67147515Y-89003254D01*
X67231459Y-89105541D01*
X67262966Y-89131398D01*
X67373501Y-89241933D01*
X67373500Y-90804998D01*
X67325850Y-90779528D01*
X67159254Y-90728992D01*
X66986000Y-90711928D01*
X66486000Y-90711928D01*
X66312746Y-90728992D01*
X66146150Y-90779528D01*
X65992614Y-90861595D01*
X65858038Y-90972038D01*
X65852658Y-90978594D01*
X65787185Y-90898815D01*
X65690494Y-90819463D01*
X65580180Y-90760498D01*
X65460482Y-90724188D01*
X65336000Y-90711928D01*
X65121750Y-90715000D01*
X64963000Y-90873750D01*
X64963000Y-91948000D01*
X64983000Y-91948000D01*
X64983000Y-92202000D01*
X64963000Y-92202000D01*
X64963000Y-92222000D01*
X64709000Y-92222000D01*
X64709000Y-92202000D01*
X63859750Y-92202000D01*
X63701000Y-92360750D01*
X63697928Y-92800000D01*
X63710188Y-92924482D01*
X63746498Y-93044180D01*
X63805463Y-93154494D01*
X63884815Y-93251185D01*
X63981506Y-93330537D01*
X64091820Y-93389502D01*
X64195655Y-93421000D01*
X56779630Y-93421000D01*
X55753000Y-92394370D01*
X55753000Y-91350000D01*
X63697928Y-91350000D01*
X63701000Y-91789250D01*
X63859750Y-91948000D01*
X64709000Y-91948000D01*
X64709000Y-90873750D01*
X64550250Y-90715000D01*
X64336000Y-90711928D01*
X64211518Y-90724188D01*
X64091820Y-90760498D01*
X63981506Y-90819463D01*
X63884815Y-90898815D01*
X63805463Y-90995506D01*
X63746498Y-91105820D01*
X63710188Y-91225518D01*
X63697928Y-91350000D01*
X55753000Y-91350000D01*
X55753000Y-89215630D01*
X57059102Y-87909529D01*
X57088172Y-87885672D01*
X57128433Y-87836614D01*
X57183395Y-87769643D01*
X57244004Y-87656250D01*
X57254152Y-87637265D01*
X57297724Y-87493628D01*
X57308750Y-87381676D01*
X57308750Y-87381673D01*
X57312436Y-87344250D01*
X57308750Y-87306827D01*
X57308750Y-86944802D01*
X57368351Y-86926722D01*
X57521887Y-86844655D01*
X57656462Y-86734212D01*
X57766905Y-86599637D01*
X57848972Y-86446101D01*
X57899508Y-86279505D01*
X57916572Y-86106251D01*
X57916572Y-85581249D01*
X57899508Y-85407995D01*
X57848972Y-85241399D01*
X57766905Y-85087863D01*
X57656462Y-84953288D01*
X57629609Y-84931250D01*
X57656462Y-84909212D01*
X57766905Y-84774637D01*
X57848972Y-84621101D01*
X57899508Y-84454505D01*
X57916572Y-84281251D01*
X57916572Y-83756249D01*
X57899508Y-83582995D01*
X57848972Y-83416399D01*
X57766905Y-83262863D01*
X57656462Y-83128288D01*
X57521887Y-83017845D01*
X57368351Y-82935778D01*
X57271750Y-82906475D01*
X57271750Y-82841423D01*
X57275436Y-82804000D01*
X57269830Y-82747079D01*
X57260724Y-82654622D01*
X57217152Y-82510985D01*
X57184215Y-82449364D01*
X57146395Y-82378607D01*
X57075029Y-82291648D01*
X57051172Y-82262578D01*
X57022103Y-82238722D01*
X56379440Y-81596060D01*
X56468000Y-81507500D01*
X56468000Y-81502283D01*
X56492185Y-81482435D01*
X56571537Y-81385744D01*
X56630502Y-81275430D01*
X56666812Y-81155732D01*
X56679072Y-81031250D01*
X56679072Y-78781250D01*
X56666812Y-78656768D01*
X56630502Y-78537070D01*
X56571537Y-78426756D01*
X56492185Y-78330065D01*
X56468000Y-78310217D01*
X56468000Y-78305000D01*
X56714000Y-78305000D01*
X56714000Y-79779250D01*
X56738000Y-79779250D01*
X56738000Y-80033250D01*
X56714000Y-80033250D01*
X56714000Y-81507500D01*
X56872750Y-81666250D01*
X56972361Y-81655654D01*
X57091652Y-81618029D01*
X57201311Y-81557854D01*
X57297123Y-81477443D01*
X57375406Y-81379884D01*
X57431123Y-81272828D01*
X57585866Y-81461384D01*
X57811986Y-81646956D01*
X58069966Y-81784849D01*
X58349889Y-81869763D01*
X58641000Y-81898435D01*
X58932110Y-81869763D01*
X59212033Y-81784849D01*
X59470013Y-81646956D01*
X59696134Y-81461384D01*
X59801496Y-81333000D01*
X68994928Y-81333000D01*
X69007188Y-81457482D01*
X69043498Y-81577180D01*
X69102463Y-81687494D01*
X69181815Y-81784185D01*
X69278506Y-81863537D01*
X69388820Y-81922502D01*
X69508518Y-81958812D01*
X69633000Y-81971072D01*
X70072250Y-81968000D01*
X70231000Y-81809250D01*
X70231000Y-80960000D01*
X69156750Y-80960000D01*
X68998000Y-81118750D01*
X68994928Y-81333000D01*
X59801496Y-81333000D01*
X59881706Y-81235264D01*
X60019599Y-80977284D01*
X60104513Y-80697361D01*
X60126000Y-80479200D01*
X60126000Y-79333300D01*
X60104513Y-79115139D01*
X60019599Y-78835216D01*
X59881706Y-78577236D01*
X59696134Y-78351116D01*
X59470014Y-78165544D01*
X59212034Y-78027651D01*
X58932111Y-77942737D01*
X58641000Y-77914065D01*
X58349890Y-77942737D01*
X58069967Y-78027651D01*
X57811987Y-78165544D01*
X57585867Y-78351116D01*
X57431123Y-78539671D01*
X57375406Y-78432616D01*
X57297123Y-78335057D01*
X57201311Y-78254646D01*
X57091652Y-78194471D01*
X56972361Y-78156846D01*
X56872750Y-78146250D01*
X56714000Y-78305000D01*
X56468000Y-78305000D01*
X56309250Y-78146250D01*
X56209639Y-78156846D01*
X56190266Y-78162956D01*
X56165482Y-78155438D01*
X56041000Y-78143178D01*
X55541000Y-78143178D01*
X55416518Y-78155438D01*
X55391000Y-78163179D01*
X55365482Y-78155438D01*
X55241000Y-78143178D01*
X54741000Y-78143178D01*
X54616518Y-78155438D01*
X54591000Y-78163179D01*
X54565482Y-78155438D01*
X54441000Y-78143178D01*
X53941000Y-78143178D01*
X53816518Y-78155438D01*
X53791000Y-78163179D01*
X53765482Y-78155438D01*
X53641000Y-78143178D01*
X53141000Y-78143178D01*
X53016518Y-78155438D01*
X52896820Y-78191748D01*
X52786506Y-78250713D01*
X52689815Y-78330065D01*
X52610463Y-78426756D01*
X52551498Y-78537070D01*
X52550754Y-78539521D01*
X52396134Y-78351116D01*
X52170014Y-78165544D01*
X51912034Y-78027651D01*
X51632111Y-77942737D01*
X51341000Y-77914065D01*
X51049890Y-77942737D01*
X50769967Y-78027651D01*
X50511987Y-78165544D01*
X50285867Y-78351116D01*
X50100294Y-78577236D01*
X49962401Y-78835216D01*
X49877487Y-79115139D01*
X49856000Y-79333300D01*
X49856000Y-80479199D01*
X49877487Y-80697360D01*
X49962401Y-80977283D01*
X50100294Y-81235263D01*
X50285866Y-81461384D01*
X50511986Y-81646956D01*
X50769966Y-81784849D01*
X51049889Y-81869763D01*
X51127418Y-81877399D01*
X48879716Y-84125102D01*
X48848209Y-84150959D01*
X48778964Y-84235335D01*
X48745051Y-84276658D01*
X48686992Y-84385279D01*
X48668397Y-84420067D01*
X48621194Y-84575675D01*
X48609919Y-84690158D01*
X48605256Y-84737500D01*
X48609250Y-84778051D01*
X48609251Y-89437257D01*
X48469900Y-89479528D01*
X48316364Y-89561595D01*
X48181788Y-89672038D01*
X48071345Y-89806614D01*
X47989278Y-89960150D01*
X47938742Y-90126746D01*
X47921678Y-90300000D01*
X47921678Y-91050000D01*
X47938742Y-91223254D01*
X47989278Y-91389850D01*
X48071345Y-91543386D01*
X48181788Y-91677962D01*
X48316364Y-91788405D01*
X48469900Y-91870472D01*
X48636496Y-91921008D01*
X48809750Y-91938072D01*
X50059750Y-91938072D01*
X50233004Y-91921008D01*
X50399600Y-91870472D01*
X50553136Y-91788405D01*
X50687712Y-91677962D01*
X50798155Y-91543386D01*
X50880222Y-91389850D01*
X50930758Y-91223254D01*
X50947822Y-91050000D01*
X50947822Y-90300000D01*
X50930758Y-90126746D01*
X50880222Y-89960150D01*
X50798155Y-89806614D01*
X50687712Y-89672038D01*
X50553136Y-89561595D01*
X50399600Y-89479528D01*
X50260250Y-89437257D01*
X50260250Y-85079432D01*
X51271678Y-84068004D01*
X51271678Y-84281251D01*
X51288742Y-84454505D01*
X51339278Y-84621101D01*
X51421345Y-84774637D01*
X51531788Y-84909212D01*
X51558641Y-84931250D01*
X51531788Y-84953288D01*
X51421345Y-85087863D01*
X51339278Y-85241399D01*
X51288742Y-85407995D01*
X51271678Y-85581249D01*
X51271678Y-86106251D01*
X51288742Y-86279505D01*
X51339278Y-86446101D01*
X51421345Y-86599637D01*
X51531788Y-86734212D01*
X51666363Y-86844655D01*
X51819899Y-86926722D01*
X51847751Y-86935171D01*
X51847751Y-87243317D01*
X51844064Y-87280750D01*
X51858777Y-87430128D01*
X51902349Y-87573765D01*
X51973105Y-87706142D01*
X52030177Y-87775684D01*
X52068329Y-87822172D01*
X52097399Y-87846029D01*
X53467000Y-89215631D01*
X53467001Y-92926567D01*
X53463314Y-92964000D01*
X53478027Y-93113378D01*
X53521599Y-93257015D01*
X53592355Y-93389392D01*
X53663103Y-93475598D01*
X53687579Y-93505422D01*
X53716649Y-93529279D01*
X55119869Y-94932500D01*
X50379933Y-94932500D01*
X50260250Y-94812818D01*
X50260250Y-94712743D01*
X50399600Y-94670472D01*
X50553136Y-94588405D01*
X50687712Y-94477962D01*
X50798155Y-94343386D01*
X50880222Y-94189850D01*
X50930758Y-94023254D01*
X50947822Y-93850000D01*
X50947822Y-93100000D01*
X50930758Y-92926746D01*
X50880222Y-92760150D01*
X50798155Y-92606614D01*
X50687712Y-92472038D01*
X50553136Y-92361595D01*
X50399600Y-92279528D01*
X50233004Y-92228992D01*
X50059750Y-92211928D01*
X48809750Y-92211928D01*
X48636496Y-92228992D01*
X48469900Y-92279528D01*
X48316364Y-92361595D01*
X48181788Y-92472038D01*
X48071345Y-92606614D01*
X47989278Y-92760150D01*
X47938742Y-92926746D01*
X47921678Y-93100000D01*
X47921678Y-93850000D01*
X47938742Y-94023254D01*
X47989278Y-94189850D01*
X48071345Y-94343386D01*
X48181788Y-94477962D01*
X48316364Y-94588405D01*
X48469900Y-94670472D01*
X48609250Y-94712743D01*
X48609250Y-95114199D01*
X48605256Y-95154750D01*
X48609250Y-95195300D01*
X48609250Y-95195302D01*
X48621194Y-95316575D01*
X48666390Y-95465567D01*
X48668397Y-95472183D01*
X48745051Y-95615592D01*
X48778964Y-95656915D01*
X48848209Y-95741291D01*
X48879716Y-95767148D01*
X49425606Y-96313039D01*
X49451459Y-96344541D01*
X49577158Y-96447699D01*
X49720566Y-96524353D01*
X49876174Y-96571556D01*
X49997447Y-96583500D01*
X49997449Y-96583500D01*
X50037999Y-96587494D01*
X50078550Y-96583500D01*
X66460067Y-96583500D01*
X66568106Y-96691539D01*
X66568774Y-96694898D01*
X66611501Y-96798049D01*
X66611500Y-100797449D01*
X66607506Y-100838000D01*
X66611500Y-100878550D01*
X66611500Y-100878552D01*
X66623444Y-100999825D01*
X66650667Y-101089566D01*
X66670647Y-101155433D01*
X66747301Y-101298842D01*
X66781214Y-101340165D01*
X66850459Y-101424541D01*
X66881965Y-101450397D01*
X67713611Y-102282044D01*
X67739459Y-102313541D01*
X67770955Y-102339389D01*
X67770958Y-102339392D01*
X67865157Y-102416699D01*
X68008566Y-102493353D01*
X68164174Y-102540556D01*
X68285447Y-102552500D01*
X68285449Y-102552500D01*
X68326000Y-102556494D01*
X68366550Y-102552500D01*
X68597221Y-102552500D01*
X68673595Y-102695386D01*
X68784038Y-102829962D01*
X68918614Y-102940405D01*
X69072150Y-103022472D01*
X69238746Y-103073008D01*
X69412000Y-103090072D01*
X69912000Y-103090072D01*
X70085254Y-103073008D01*
X70251850Y-103022472D01*
X70405386Y-102940405D01*
X70539962Y-102829962D01*
X70545342Y-102823406D01*
X70610815Y-102903185D01*
X70707506Y-102982537D01*
X70817820Y-103041502D01*
X70937518Y-103077812D01*
X71062000Y-103090072D01*
X71276250Y-103087000D01*
X71435000Y-102928250D01*
X71435000Y-101854000D01*
X71689000Y-101854000D01*
X71689000Y-102928250D01*
X71847750Y-103087000D01*
X72062000Y-103090072D01*
X72186482Y-103077812D01*
X72306180Y-103041502D01*
X72416494Y-102982537D01*
X72513185Y-102903185D01*
X72592537Y-102806494D01*
X72651502Y-102696180D01*
X72687812Y-102576482D01*
X72700072Y-102452000D01*
X78429928Y-102452000D01*
X78442188Y-102576482D01*
X78478498Y-102696180D01*
X78537463Y-102806494D01*
X78616815Y-102903185D01*
X78713506Y-102982537D01*
X78823820Y-103041502D01*
X78943518Y-103077812D01*
X79068000Y-103090072D01*
X79282250Y-103087000D01*
X79441000Y-102928250D01*
X79441000Y-101854000D01*
X78591750Y-101854000D01*
X78433000Y-102012750D01*
X78429928Y-102452000D01*
X72700072Y-102452000D01*
X72697000Y-102012750D01*
X72538250Y-101854000D01*
X71689000Y-101854000D01*
X71435000Y-101854000D01*
X71415000Y-101854000D01*
X71415000Y-101600000D01*
X71435000Y-101600000D01*
X71435000Y-100525750D01*
X71689000Y-100525750D01*
X71689000Y-101600000D01*
X72538250Y-101600000D01*
X72697000Y-101441250D01*
X72700072Y-101002000D01*
X72687812Y-100877518D01*
X72651502Y-100757820D01*
X72592537Y-100647506D01*
X72513185Y-100550815D01*
X72416494Y-100471463D01*
X72306180Y-100412498D01*
X72186482Y-100376188D01*
X72062000Y-100363928D01*
X71847750Y-100367000D01*
X71689000Y-100525750D01*
X71435000Y-100525750D01*
X71276250Y-100367000D01*
X71062000Y-100363928D01*
X70937518Y-100376188D01*
X70817820Y-100412498D01*
X70707506Y-100471463D01*
X70610815Y-100550815D01*
X70545342Y-100630594D01*
X70539962Y-100624038D01*
X70487500Y-100580984D01*
X70487500Y-99970932D01*
X70913201Y-99545232D01*
X70935506Y-99563537D01*
X71045820Y-99622502D01*
X71165518Y-99658812D01*
X71290000Y-99671072D01*
X71840000Y-99671072D01*
X71964482Y-99658812D01*
X71965663Y-99658454D01*
X72079250Y-99668000D01*
X72171333Y-99575917D01*
X72194494Y-99563537D01*
X72291185Y-99484185D01*
X72365000Y-99394241D01*
X72438815Y-99484185D01*
X72535506Y-99563537D01*
X72558667Y-99575917D01*
X72650750Y-99668000D01*
X72764337Y-99658454D01*
X72765518Y-99658812D01*
X72890000Y-99671072D01*
X73440000Y-99671072D01*
X73564482Y-99658812D01*
X73565000Y-99658655D01*
X73565518Y-99658812D01*
X73690000Y-99671072D01*
X74240000Y-99671072D01*
X74364482Y-99658812D01*
X74365000Y-99658655D01*
X74365518Y-99658812D01*
X74490000Y-99671072D01*
X75040000Y-99671072D01*
X75164482Y-99658812D01*
X75165000Y-99658655D01*
X75165518Y-99658812D01*
X75290000Y-99671072D01*
X75840000Y-99671072D01*
X75964482Y-99658812D01*
X75965000Y-99658655D01*
X75965518Y-99658812D01*
X76090000Y-99671072D01*
X76640000Y-99671072D01*
X76764482Y-99658812D01*
X76765000Y-99658655D01*
X76765518Y-99658812D01*
X76890000Y-99671072D01*
X77440000Y-99671072D01*
X77564482Y-99658812D01*
X77565000Y-99658655D01*
X77565518Y-99658812D01*
X77690000Y-99671072D01*
X78240000Y-99671072D01*
X78364482Y-99658812D01*
X78365663Y-99658454D01*
X78479250Y-99668000D01*
X78571333Y-99575917D01*
X78594494Y-99563537D01*
X78637998Y-99527834D01*
X78637998Y-99668000D01*
X78752104Y-99668000D01*
X78789363Y-99790826D01*
X78798647Y-99821433D01*
X78875301Y-99964842D01*
X78894319Y-99988015D01*
X78978459Y-100090541D01*
X79009966Y-100116398D01*
X79260252Y-100366685D01*
X79068000Y-100363928D01*
X78943518Y-100376188D01*
X78823820Y-100412498D01*
X78713506Y-100471463D01*
X78616815Y-100550815D01*
X78537463Y-100647506D01*
X78478498Y-100757820D01*
X78442188Y-100877518D01*
X78429928Y-101002000D01*
X78433000Y-101441250D01*
X78591750Y-101600000D01*
X79441000Y-101600000D01*
X79441000Y-101580000D01*
X79695000Y-101580000D01*
X79695000Y-101600000D01*
X79715000Y-101600000D01*
X79715000Y-101854000D01*
X79695000Y-101854000D01*
X79695000Y-102928250D01*
X79853750Y-103087000D01*
X80068000Y-103090072D01*
X80192482Y-103077812D01*
X80312180Y-103041502D01*
X80422494Y-102982537D01*
X80519185Y-102903185D01*
X80584658Y-102823406D01*
X80590038Y-102829962D01*
X80724614Y-102940405D01*
X80878150Y-103022472D01*
X81044746Y-103073008D01*
X81218000Y-103090072D01*
X81718000Y-103090072D01*
X81891254Y-103073008D01*
X82057850Y-103022472D01*
X82211386Y-102940405D01*
X82345962Y-102829962D01*
X82456405Y-102695386D01*
X82532779Y-102552500D01*
X83192497Y-102552500D01*
X83329744Y-102644205D01*
X83518102Y-102722226D01*
X83718061Y-102762000D01*
X83921939Y-102762000D01*
X84121898Y-102722226D01*
X84310256Y-102644205D01*
X84479774Y-102530937D01*
X84623937Y-102386774D01*
X84737205Y-102217256D01*
X84815226Y-102028898D01*
X84855000Y-101828939D01*
X84855000Y-101625061D01*
X84815226Y-101425102D01*
X84737205Y-101236744D01*
X84623937Y-101067226D01*
X84479774Y-100923063D01*
X84310256Y-100809795D01*
X84121898Y-100731774D01*
X83921939Y-100692000D01*
X83718061Y-100692000D01*
X83518102Y-100731774D01*
X83329744Y-100809795D01*
X83192497Y-100901500D01*
X82532779Y-100901500D01*
X82456405Y-100758614D01*
X82345962Y-100624038D01*
X82211386Y-100513595D01*
X82057850Y-100431528D01*
X81891254Y-100380992D01*
X81718000Y-100363928D01*
X81592361Y-100363928D01*
X80447216Y-99218784D01*
X80448363Y-99215000D01*
X83370928Y-99215000D01*
X83383188Y-99339482D01*
X83419498Y-99459180D01*
X83478463Y-99569494D01*
X83557815Y-99666185D01*
X83654506Y-99745537D01*
X83764820Y-99804502D01*
X83884518Y-99840812D01*
X84009000Y-99853072D01*
X84423250Y-99850000D01*
X84582000Y-99691250D01*
X84582000Y-98829500D01*
X83532750Y-98829500D01*
X83374000Y-98988250D01*
X83370928Y-99215000D01*
X80448363Y-99215000D01*
X80465812Y-99157482D01*
X80478072Y-99033000D01*
X80478072Y-97533000D01*
X80474038Y-97492038D01*
X80515000Y-97496072D01*
X82015000Y-97496072D01*
X82139482Y-97483812D01*
X82259180Y-97447502D01*
X82369494Y-97388537D01*
X82422544Y-97345000D01*
X82678370Y-97345000D01*
X82723216Y-97389846D01*
X82747078Y-97418922D01*
X82863108Y-97514145D01*
X82995485Y-97584902D01*
X83139122Y-97628474D01*
X83251074Y-97639500D01*
X83251077Y-97639500D01*
X83288500Y-97643186D01*
X83325923Y-97639500D01*
X83525612Y-97639500D01*
X83587276Y-97714637D01*
X83557815Y-97738815D01*
X83478463Y-97835506D01*
X83419498Y-97945820D01*
X83383188Y-98065518D01*
X83370928Y-98190000D01*
X83374000Y-98416750D01*
X83532750Y-98575500D01*
X84582000Y-98575500D01*
X84582000Y-98555500D01*
X84836000Y-98555500D01*
X84836000Y-98575500D01*
X84856000Y-98575500D01*
X84856000Y-98829500D01*
X84836000Y-98829500D01*
X84836000Y-99691250D01*
X84994750Y-99850000D01*
X85409000Y-99853072D01*
X85533482Y-99840812D01*
X85598000Y-99821241D01*
X85598000Y-110998000D01*
X47752000Y-110998000D01*
X47752000Y-107968750D01*
X47971678Y-107968750D01*
X47983938Y-108093232D01*
X48020248Y-108212930D01*
X48079213Y-108323244D01*
X48158565Y-108419935D01*
X48255256Y-108499287D01*
X48365570Y-108558252D01*
X48485268Y-108594562D01*
X48609750Y-108606822D01*
X49224000Y-108603750D01*
X49382750Y-108445000D01*
X49382750Y-107545750D01*
X49636750Y-107545750D01*
X49636750Y-108445000D01*
X49795500Y-108603750D01*
X50409750Y-108606822D01*
X50534232Y-108594562D01*
X50653930Y-108558252D01*
X50764244Y-108499287D01*
X50860935Y-108419935D01*
X50940287Y-108323244D01*
X50999252Y-108212930D01*
X51035562Y-108093232D01*
X51047822Y-107968750D01*
X51044750Y-107704500D01*
X50886000Y-107545750D01*
X49636750Y-107545750D01*
X49382750Y-107545750D01*
X48133500Y-107545750D01*
X47974750Y-107704500D01*
X47971678Y-107968750D01*
X47752000Y-107968750D01*
X47752000Y-106868750D01*
X47971678Y-106868750D01*
X47974750Y-107133000D01*
X48133500Y-107291750D01*
X49382750Y-107291750D01*
X49382750Y-106392500D01*
X49636750Y-106392500D01*
X49636750Y-107291750D01*
X50886000Y-107291750D01*
X51044750Y-107133000D01*
X51047822Y-106868750D01*
X54171678Y-106868750D01*
X54171678Y-107968750D01*
X54183938Y-108093232D01*
X54220248Y-108212930D01*
X54279213Y-108323244D01*
X54358565Y-108419935D01*
X54455256Y-108499287D01*
X54565570Y-108558252D01*
X54685268Y-108594562D01*
X54809750Y-108606822D01*
X56609750Y-108606822D01*
X56734232Y-108594562D01*
X56853930Y-108558252D01*
X56964244Y-108499287D01*
X57060935Y-108419935D01*
X57140287Y-108323244D01*
X57199252Y-108212930D01*
X57235562Y-108093232D01*
X57247822Y-107968750D01*
X57247822Y-106868750D01*
X57235562Y-106744268D01*
X57199252Y-106624570D01*
X57140287Y-106514256D01*
X57060935Y-106417565D01*
X56964244Y-106338213D01*
X56853930Y-106279248D01*
X56734232Y-106242938D01*
X56609750Y-106230678D01*
X54809750Y-106230678D01*
X54685268Y-106242938D01*
X54565570Y-106279248D01*
X54455256Y-106338213D01*
X54358565Y-106417565D01*
X54279213Y-106514256D01*
X54220248Y-106624570D01*
X54183938Y-106744268D01*
X54171678Y-106868750D01*
X51047822Y-106868750D01*
X51035562Y-106744268D01*
X50999252Y-106624570D01*
X50940287Y-106514256D01*
X50860935Y-106417565D01*
X50764244Y-106338213D01*
X50653930Y-106279248D01*
X50534232Y-106242938D01*
X50409750Y-106230678D01*
X49795500Y-106233750D01*
X49636750Y-106392500D01*
X49382750Y-106392500D01*
X49224000Y-106233750D01*
X48609750Y-106230678D01*
X48485268Y-106242938D01*
X48365570Y-106279248D01*
X48255256Y-106338213D01*
X48158565Y-106417565D01*
X48079213Y-106514256D01*
X48020248Y-106624570D01*
X47983938Y-106744268D01*
X47971678Y-106868750D01*
X47752000Y-106868750D01*
X47752000Y-103168750D01*
X47971678Y-103168750D01*
X47971678Y-104268750D01*
X47983938Y-104393232D01*
X48020248Y-104512930D01*
X48079213Y-104623244D01*
X48158565Y-104719935D01*
X48255256Y-104799287D01*
X48365570Y-104858252D01*
X48485268Y-104894562D01*
X48609750Y-104906822D01*
X50409750Y-104906822D01*
X50534232Y-104894562D01*
X50653930Y-104858252D01*
X50764244Y-104799287D01*
X50860935Y-104719935D01*
X50940287Y-104623244D01*
X50999252Y-104512930D01*
X51035562Y-104393232D01*
X51047822Y-104268750D01*
X51047822Y-103168750D01*
X54171678Y-103168750D01*
X54171678Y-104268750D01*
X54183938Y-104393232D01*
X54220248Y-104512930D01*
X54279213Y-104623244D01*
X54358565Y-104719935D01*
X54455256Y-104799287D01*
X54565570Y-104858252D01*
X54685268Y-104894562D01*
X54809750Y-104906822D01*
X56609750Y-104906822D01*
X56734232Y-104894562D01*
X56853930Y-104858252D01*
X56964244Y-104799287D01*
X57060935Y-104719935D01*
X57140287Y-104623244D01*
X57154644Y-104596384D01*
X57229102Y-104627226D01*
X57429061Y-104667000D01*
X57632939Y-104667000D01*
X57832898Y-104627226D01*
X58021256Y-104549205D01*
X58190774Y-104435937D01*
X58334937Y-104291774D01*
X58448205Y-104122256D01*
X58526226Y-103933898D01*
X58566000Y-103733939D01*
X58566000Y-103530061D01*
X58526226Y-103330102D01*
X58448205Y-103141744D01*
X58334937Y-102972226D01*
X58190774Y-102828063D01*
X58021256Y-102714795D01*
X57832898Y-102636774D01*
X57632939Y-102597000D01*
X57429061Y-102597000D01*
X57229102Y-102636774D01*
X57051919Y-102710166D01*
X56964244Y-102638213D01*
X56853930Y-102579248D01*
X56734232Y-102542938D01*
X56609750Y-102530678D01*
X54809750Y-102530678D01*
X54685268Y-102542938D01*
X54565570Y-102579248D01*
X54455256Y-102638213D01*
X54358565Y-102717565D01*
X54279213Y-102814256D01*
X54220248Y-102924570D01*
X54183938Y-103044268D01*
X54171678Y-103168750D01*
X51047822Y-103168750D01*
X51035562Y-103044268D01*
X50999252Y-102924570D01*
X50940287Y-102814256D01*
X50860935Y-102717565D01*
X50764244Y-102638213D01*
X50653930Y-102579248D01*
X50534232Y-102542938D01*
X50409750Y-102530678D01*
X48609750Y-102530678D01*
X48485268Y-102542938D01*
X48365570Y-102579248D01*
X48255256Y-102638213D01*
X48158565Y-102717565D01*
X48079213Y-102814256D01*
X48020248Y-102924570D01*
X47983938Y-103044268D01*
X47971678Y-103168750D01*
X47752000Y-103168750D01*
X47752000Y-74401930D01*
X47882614Y-74361498D01*
X48277443Y-74320000D01*
X49970534Y-74320000D01*
X49962401Y-74335216D01*
G37*
%TD.AperFunction*%
D22*
X65107750Y-93421000D02*
X64963002Y-93421000D01*
X64963002Y-93276252D01*
X65107750Y-93421000D01*
%TA.AperFunction,Conductor*%
D23*
G36*
X65107750Y-93421000D02*
G01*
X64963002Y-93421000D01*
X64963002Y-93276252D01*
X65107750Y-93421000D01*
G37*
%TD.AperFunction*%
D22*
X73830000Y-80606000D02*
X73850000Y-80606000D01*
X73850000Y-80860000D01*
X73830000Y-80860000D01*
X73830000Y-81809250D01*
X73988750Y-81968000D01*
X74403000Y-81971072D01*
X74527482Y-81958812D01*
X74647180Y-81922502D01*
X74757494Y-81863537D01*
X74803000Y-81826191D01*
X74848506Y-81863537D01*
X74958820Y-81922502D01*
X75078518Y-81958812D01*
X75141001Y-81964966D01*
X75141000Y-84604369D01*
X72898000Y-82361370D01*
X72898000Y-81960731D01*
X73003000Y-81971072D01*
X73417250Y-81968000D01*
X73576000Y-81809250D01*
X73576000Y-80860000D01*
X73556000Y-80860000D01*
X73556000Y-80606000D01*
X73576000Y-80606000D01*
X73576000Y-80586000D01*
X73830000Y-80586000D01*
X73830000Y-80606000D01*
%TA.AperFunction,Conductor*%
D23*
G36*
X73830000Y-80606000D02*
G01*
X73850000Y-80606000D01*
X73850000Y-80860000D01*
X73830000Y-80860000D01*
X73830000Y-81809250D01*
X73988750Y-81968000D01*
X74403000Y-81971072D01*
X74527482Y-81958812D01*
X74647180Y-81922502D01*
X74757494Y-81863537D01*
X74803000Y-81826191D01*
X74848506Y-81863537D01*
X74958820Y-81922502D01*
X75078518Y-81958812D01*
X75141001Y-81964966D01*
X75141000Y-84604369D01*
X72898000Y-82361370D01*
X72898000Y-81960731D01*
X73003000Y-81971072D01*
X73417250Y-81968000D01*
X73576000Y-81809250D01*
X73576000Y-80860000D01*
X73556000Y-80860000D01*
X73556000Y-80606000D01*
X73576000Y-80606000D01*
X73576000Y-80586000D01*
X73830000Y-80586000D01*
X73830000Y-80606000D01*
G37*
%TD.AperFunction*%
%TD*%
M02*
